SplineFontDB: 3.0
FontName: Comme-Medium
FullName: Comme Medium
FamilyName: Comme
Weight: Medium
Copyright: Digitized data Copyright (c) 2011-2014, vernon adams.
Version: 1.2
ItalicAngle: 0
UnderlinePosition: 0
UnderlineWidth: 0
Ascent: 727
Descent: 273
UFOAscent: 761.719
UFODescent: -271.484
LayerCount: 2
Layer: 0 0 "Back"  1
Layer: 1 0 "Fore"  0
FSType: 0
OS2Version: 0
OS2_WeightWidthSlopeOnly: 0
OS2_UseTypoMetrics: 1
CreationTime: 1397155145
ModificationTime: 1397229656
PfmFamily: 17
TTFWeight: 500
TTFWidth: 5
LineGap: 0
VLineGap: 0
OS2TypoAscent: 1087
OS2TypoAOffset: 0
OS2TypoDescent: -234
OS2TypoDOffset: 0
OS2TypoLinegap: 0
OS2WinAscent: 1087
OS2WinAOffset: 0
OS2WinDescent: 234
OS2WinDOffset: 0
HheadAscent: 1087
HheadAOffset: 0
HheadDescent: -234
HheadDOffset: 0
OS2Vendor: 'NeWT'
Lookup: 4 0 1 "ligaStandardLigatureslookup0"  {"ligaStandardLigatureslookup0 subtable"  } ['liga' ('latn' <'dflt' > 'grek' <'dflt' > 'DFLT' <'dflt' > ) ]
Lookup: 4 0 0 "fracDiagonalFractionslookup11"  {"fracDiagonalFractionslookup11 subtable"  } ['frac' ('latn' <'dflt' 'CAT ' 'MOL ' 'ROM ' 'TRK ' > 'grek' <'dflt' > 'DFLT' <'dflt' > ) ]
Lookup: 6 0 0 "ordnOrdinalslookup12"  {"ordnOrdinalslookup12 contextual 0"  "ordnOrdinalslookup12 contextual 1"  } ['ordn' ('latn' <'dflt' 'CAT ' 'MOL ' 'ROM ' 'TRK ' > 'grek' <'dflt' > 'DFLT' <'dflt' > ) ]
Lookup: 1 0 0 "Single Substitution lookup 3"  {"Single Substitution lookup 3 subtable"  } []
Lookup: 1 0 0 "Single Substitution lookup 4"  {"Single Substitution lookup 4 subtable"  } []
Lookup: 4 0 0 "dligDiscretionaryLigatureslooku"  {"dligDiscretionaryLigatureslooku subtable"  } ['dlig' ('latn' <'dflt' 'CAT ' 'MOL ' 'ROM ' 'TRK ' > 'grek' <'dflt' > 'DFLT' <'dflt' > ) ]
MarkAttachClasses: 1
DEI: 91125
ChainSub2: coverage "ordnOrdinalslookup12 contextual 1"  0 0 0 1
 1 1 0
  Coverage: 3 O o
  BCoverage: 49 zero one two three four five six seven eight nine
 1
  SeqLookup: 0 "Single Substitution lookup 4" 
EndFPST

StartChar: A
Encoding: 65 65 0
Width: 618
VWidth: 0
GlyphClass: 2
Flags: W
PickledData: "(dp1
S'org.pippin.gimp.org.kernagic'
p2
(dp3
S'lstem'
p4
I0
sS'rstem'
p5
I0
ssS'com.typemytype.robofont.layerData'
p6
(dp7
sS'org.robofab.postScriptHintData'
p8
(dp9
s."
AnchorPoint: "top" 309 626 basechar 0
AnchorPoint: "bot" 309 0 basechar 0
LayerCount: 2
Fore
SplineSet
255 626 m 257
 26 0 l 257
 125 0 l 257
 193 186 l 257
 425 186 l 257
 494 0 l 257
 593 0 l 257
 364 626 l 257
 255 626 l 257
214 253 m 257
 309 535 l 257
 405 253 l 257
 214 253 l 257
EndSplineSet
Substitution2: "Single Substitution lookup 3 subtable" ordfeminine
EndChar

StartChar: AE
Encoding: 198 198 1
Width: 726
VWidth: 0
GlyphClass: 2
Flags: HW
PickledData: "(dp1
S'org.pippin.gimp.org.kernagic'
p2
(dp3
S'lstem'
p4
I0
sS'rstem'
p5
I0
ssS'com.typemytype.robofont.layerData'
p6
(dp7
sS'org.robofab.postScriptHintData'
p8
(dp9
s."
LayerCount: 2
Fore
SplineSet
351 254 m 257
 204 254 l 257
 351 533 l 257
 351 254 l 257
312 625 m 257
 -32 0 l 257
 71 0 l 257
 172 189 l 257
 351 189 l 257
 351 0 l 257
 698 0 l 257
 702 72 l 257
 438 72 l 257
 438 289 l 257
 670 289 l 257
 670 360 l 257
 438 360 l 257
 438 555 l 257
 691 555 l 257
 695 625 l 257
 312 625 l 257
EndSplineSet
EndChar

StartChar: B
Encoding: 66 66 13
Width: 595
VWidth: 0
GlyphClass: 2
Flags: HW
PickledData: "(dp1
S'org.pippin.gimp.org.kernagic'
p2
(dp3
S'lstem'
p4
I0
sS'rstem'
p5
I0
ssS'com.typemytype.robofont.layerData'
p6
(dp7
sS'org.robofab.postScriptHintData'
p8
(dp9
s."
AnchorPoint: "top" 287 625 basechar 0
LayerCount: 2
Fore
SplineSet
243 -3 m 256
 463 -3 543 54 543 185 c 256
 543 265 505 317 412 338 c 257
 490 363 522 412 522 470 c 256
 522 557 481 628 267 628 c 256
 216 628 155 625 84 617 c 257
 84 4 l 257
 144 -1 196 -3 243 -3 c 256
184 557 m 257
 217 560 246 562 272 562 c 256
 388 562 426 531 426 462 c 256
 426 385 365 367 290 367 c 258
 184 367 l 257
 184 557 l 257
184 302 m 257
 286 302 l 258
 396 302 445 272 445 186 c 256
 445 115 425 68 258 68 c 256
 235 68 209 68 184 70 c 257
 184 302 l 257
EndSplineSet
EndChar

StartChar: C
Encoding: 67 67 14
Width: 628
VWidth: 0
GlyphClass: 2
Flags: HW
PickledData: "(dp1
S'org.pippin.gimp.org.kernagic'
p2
(dp3
S'lstem'
p4
I0
sS'rstem'
p5
I0
ssS'com.typemytype.robofont.layerData'
p6
(dp7
sS'org.robofab.postScriptHintData'
p8
(dp9
s."
AnchorPoint: "top" 342 625 basechar 0
AnchorPoint: "bot" 345 0 basechar 0
LayerCount: 2
Fore
SplineSet
588 465 m 257
 567 567 469 634 348 634 c 256
 175 634 62 517 62 313 c 256
 62 107 175 -8 348 -8 c 256
 470 -8 568 59 589 161 c 257
 517 188 l 257
 510 188 l 257
 494 120 432 67 352 67 c 256
 240 67 165 145 165 313 c 256
 165 481 239 559 356 559 c 256
 434 559 493 504 508 438 c 257
 516 438 l 257
 588 465 l 257
EndSplineSet
EndChar

StartChar: D
Encoding: 68 68 20
Width: 647
VWidth: 0
GlyphClass: 2
Flags: HW
PickledData: "(dp1
S'org.pippin.gimp.org.kernagic'
p2
(dp3
S'lstem'
p4
I0
sS'rstem'
p5
I0
ssS'com.typemytype.robofont.layerData'
p6
(dp7
sS'com.fontlab.hintData'
p8
(dp9
S'vhints'
p10
((dp11
S'position'
p12
I1280
sS'width'
p13
I122
stp14
sS'hhints'
p15
((dp16
g12
I0
sg13
I94
s(dp17
g12
I1355
sg13
I94
stp18
ssS'org.robofab.postScriptHintData'
p19
(dp20
s."
HStem: 0 40 582 40
VStem: 549 53
AnchorPoint: "top" 324 625 basechar 0
AnchorPoint: "bot" 333 0 basechar 0
LayerCount: 2
Fore
SplineSet
84 4 m 257
 132 -2 178 -4 218 -4 c 256
 496 -4 586 128 586 321 c 256
 586 513 516 628 245 628 c 256
 198 628 144 624 84 617 c 257
 84 4 l 257
184 69 m 257
 184 555 l 257
 210 558 235 559 257 559 c 256
 450 559 488 463 488 319 c 256
 488 170 438 66 243 66 c 256
 225 66 205 67 184 69 c 257
EndSplineSet
EndChar

StartChar: uni0394
Encoding: 916 916 23
Width: 572
VWidth: 0
GlyphClass: 2
Flags: HW
PickledData: "(dp1
S'org.pippin.gimp.org.kernagic'
p2
(dp3
S'lstem'
p4
I0
sS'rstem'
p5
I0
ssS'com.typemytype.robofont.layerData'
p6
(dp7
S'b'
(dp8
S'name'
p9
S'Delta'
p10
sS'lib'
p11
(dp12
sS'unicodes'
p13
(tsS'width'
p14
I1334
sS'contours'
p15
(tsS'components'
p16
(tsS'anchors'
p17
(tsssS'org.robofab.postScriptHintData'
p18
(dp19
s."
LayerCount: 2
Fore
SplineSet
119 70 m 257
 282 554 l 257
 449 70 l 257
 119 70 l 257
17 0 m 257
 551 0 l 257
 323 642 l 257
 243 642 l 257
 17 0 l 257
EndSplineSet
EndChar

StartChar: E
Encoding: 69 69 24
Width: 566
VWidth: 0
GlyphClass: 2
Flags: W
PickledData: "(dp1
S'org.pippin.gimp.org.kernagic'
p2
(dp3
S'lstem'
p4
I0
sS'rstem'
p5
I0
ssS'com.typemytype.robofont.layerData'
p6
(dp7
sS'org.robofab.postScriptHintData'
p8
(dp9
s."
AnchorPoint: "top" 318 626 basechar 0
AnchorPoint: "bot" 301 0 basechar 0
LayerCount: 2
Fore
SplineSet
84 626 m 257
 84 0 l 257
 506 0 l 257
 511 73 l 257
 184 73 l 257
 184 287 l 257
 477 287 l 257
 477 359 l 257
 184 359 l 257
 184 554 l 257
 499 554 l 257
 504 626 l 257
 84 626 l 257
EndSplineSet
EndChar

StartChar: Eng
Encoding: 330 330 33
Width: 661
VWidth: 0
GlyphClass: 2
Flags: HW
PickledData: "(dp1
S'org.robofab.postScriptHintData'
p2
(dp3
s."
LayerCount: 2
Fore
SplineSet
489 406 m 257
 489 -2 l 258
 489 -94 470 -125 324 -125 c 257
 327 -193 l 257
 509 -191 579 -146 579 -7 c 258
 579 406 l 257
 489 406 l 257
EndSplineSet
Refer: 69 78 N 1 0 0 1 0 0 2
EndChar

StartChar: Euro
Encoding: 8364 8364 36
Width: 596
VWidth: 0
GlyphClass: 2
Flags: HW
PickledData: "(dp1
S'org.pippin.gimp.org.kernagic'
p2
(dp3
S'lstem'
p4
I0
sS'rstem'
p5
I0
ssS'com.typemytype.robofont.layerData'
p6
(dp7
S'b'
(dp8
S'name'
p9
S'Euro'
p10
sS'lib'
p11
(dp12
sS'unicodes'
p13
(tsS'width'
p14
I1391
sS'contours'
p15
(tsS'components'
p16
(tsS'anchors'
p17
(tsssS'org.robofab.postScriptHintData'
p18
(dp19
s."
LayerCount: 2
Fore
SplineSet
-25 227 m 257
 346 227 l 257
 348 279 l 257
 97 279 l 257
 97 349 l 257
 348 349 l 257
 351 402 l 257
 -22 402 l 257
 -24 349 l 257
 49 349 l 257
 49 279 l 257
 -24 279 l 257
 -25 227 l 257
EndSplineSet
Refer: 14 67 N 1 0 0 1 -29 0 2
EndChar

StartChar: F
Encoding: 70 70 37
Width: 523
VWidth: 0
GlyphClass: 2
Flags: HW
PickledData: "(dp1
S'org.pippin.gimp.org.kernagic'
p2
(dp3
S'lstem'
p4
I0
sS'rstem'
p5
I705
ssS'com.typemytype.robofont.layerData'
p6
(dp7
sS'org.robofab.postScriptHintData'
p8
(dp9
s."
AnchorPoint: "top" 316 626 basechar 0
LayerCount: 2
Fore
SplineSet
84 626 m 261
 84 0 l 257
 184 0 l 257
 184 277 l 257
 465 277 l 257
 465 347 l 257
 184 347 l 257
 184 552 l 261
 498 552 l 261
 504 626 l 261
 84 626 l 261
EndSplineSet
EndChar

StartChar: G
Encoding: 71 71 38
Width: 643
VWidth: 0
GlyphClass: 2
Flags: HW
PickledData: "(dp1
S'org.pippin.gimp.org.kernagic'
p2
(dp3
S'lstem'
p4
I0
sS'rstem'
p5
I0
ssS'com.typemytype.robofont.layerData'
p6
(dp7
sS'org.robofab.postScriptHintData'
p8
(dp9
s."
AnchorPoint: "top" 346 625 basechar 0
AnchorPoint: "bot" 342 0 basechar 0
LayerCount: 2
Fore
SplineSet
354 -9 m 256
 444 -9 518 7 582 33 c 257
 582 335 l 257
 360 335 l 257
 356 270 l 257
 494 260 l 257
 494 84 l 257
 465 75 425 66 371 66 c 256
 227 66 165 155 165 316 c 256
 165 466 234 559 368 559 c 256
 445 559 495 522 520 489 c 257
 529 489 l 257
 584 537 l 257
 547 592 470 634 364 634 c 256
 175 634 62 511 62 315 c 256
 62 120 161 -9 354 -9 c 256
EndSplineSet
EndChar

StartChar: H
Encoding: 72 72 44
Width: 665
VWidth: 0
GlyphClass: 2
Flags: HW
PickledData: "(dp1
S'org.pippin.gimp.org.kernagic'
p2
(dp3
S'lstem'
p4
I0
sS'rstem'
p5
I0
ssS'com.typemytype.robofont.layerData'
p6
(dp7
sS'org.robofab.postScriptHintData'
p8
(dp9
s."
AnchorPoint: "top" 338 626 basechar 0
LayerCount: 2
Fore
SplineSet
481 285 m 261
 481 0 l 261
 580 0 l 261
 580 626 l 261
 481 626 l 261
 481 359 l 261
 185 359 l 261
 185 626 l 261
 86 626 l 261
 86 0 l 261
 185 0 l 261
 185 285 l 261
 481 285 l 261
EndSplineSet
EndChar

StartChar: Hbar
Encoding: 294 294 45
Width: 646
VWidth: 0
GlyphClass: 2
Flags: HW
PickledData: "(dp1
S'org.pippin.gimp.org.kernagic'
p2
(dp3
S'lstem'
p4
I0
sS'rstem'
p5
I0
ssS'com.typemytype.robofont.layerData'
p6
(dp7
sS'org.robofab.postScriptHintData'
p8
(dp9
s."
LayerCount: 2
Fore
SplineSet
27 550 m 257
 27 490 l 257
 616 490 l 257
 616 550 l 257
 27 550 l 257
EndSplineSet
Refer: 44 72 N 1 0 0 1 0 0 2
EndChar

StartChar: I
Encoding: 73 73 47
Width: 423
VWidth: 0
GlyphClass: 2
Flags: HW
PickledData: "(dp1
S'org.pippin.gimp.org.kernagic'
p2
(dp3
S'lstem'
p4
I0
sS'rstem'
p5
I0
ssS'com.typemytype.robofont.layerData'
p6
(dp7
sS'com.fontlab.hintData'
p8
(dp9
S'vhints'
p10
((dp11
S'position'
p12
I111
sS'width'
p13
I529
stp14
sS'hhints'
p15
((dp16
g12
I0
sg13
I86
s(dp17
g12
I1363
sg13
I86
stp18
ssS'org.robofab.postScriptHintData'
p19
(dp20
s."
HStem: 0 37 585 37
VStem: 47 227
AnchorPoint: "top" 211 626 basechar 0
LayerCount: 2
Fore
SplineSet
76 626 m 257
 76 568 l 257
 162 568 l 257
 162 58 l 261
 76 58 l 261
 76 0 l 261
 345 0 l 261
 345 58 l 261
 261 58 l 261
 261 568 l 257
 345 568 l 257
 345 626 l 257
 76 626 l 257
EndSplineSet
EndChar

StartChar: J
Encoding: 74 74 58
Width: 343
VWidth: 0
GlyphClass: 2
Flags: HW
PickledData: "(dp1
S'org.pippin.gimp.org.kernagic'
p2
(dp3
S'lstem'
p4
I132
sS'rstem'
p5
I0
ssS'com.typemytype.robofont.layerData'
p6
(dp7
sS'org.robofab.postScriptHintData'
p8
(dp9
s."
AnchorPoint: "top" 201 626 basechar 0
LayerCount: 2
Fore
SplineSet
149 626 m 261
 149 34 l 258
 149 -57 147 -72 101 -91 c 257
 42 -116 l 257
 74 -192 l 257
 120 -174 l 257
 237 -129 249 -98 249 33 c 258
 249 626 l 261
 149 626 l 261
EndSplineSet
EndChar

StartChar: K
Encoding: 75 75 60
Width: 577
VWidth: 0
GlyphClass: 2
Flags: HW
PickledData: "(dp1
S'org.pippin.gimp.org.kernagic'
p2
(dp3
S'lstem'
p4
I0
sS'rstem'
p5
I851
ssS'com.typemytype.robofont.layerData'
p6
(dp7
sS'org.robofab.postScriptHintData'
p8
(dp9
s."
AnchorPoint: "top" 303 626 basechar 0
AnchorPoint: "bot" 304 0 basechar 0
LayerCount: 2
Fore
SplineSet
564 626 m 261
 456 626 l 261
 184 338 l 257
 184 626 l 261
 84 626 l 261
 84 0 l 257
 184 0 l 257
 184 243 l 257
 242 302 l 257
 471 0 l 257
 582 0 l 257
 582 7 l 257
 316 355 l 257
 564 619 l 261
 564 626 l 261
EndSplineSet
EndChar

StartChar: L
Encoding: 76 76 62
Width: 481
VWidth: 0
GlyphClass: 2
Flags: HW
PickledData: "(dp1
S'org.pippin.gimp.org.kernagic'
p2
(dp3
S'lstem'
p4
I0
sS'rstem'
p5
I597
ssS'com.typemytype.robofont.layerData'
p6
(dp7
sS'org.robofab.postScriptHintData'
p8
(dp9
s."
AnchorPoint: "top" 184 626 basechar 0
AnchorPoint: "bot" 265 0 basechar 0
LayerCount: 2
Fore
SplineSet
84 626 m 261
 84 0 l 257
 476 0 l 257
 480 71 l 257
 184 71 l 257
 184 626 l 261
 84 626 l 261
EndSplineSet
EndChar

StartChar: M
Encoding: 77 77 68
Width: 786
VWidth: 0
GlyphClass: 2
Flags: HW
PickledData: "(dp1
S'org.pippin.gimp.org.kernagic'
p2
(dp3
S'lstem'
p4
I0
sS'rstem'
p5
I0
ssS'com.fontlab.hintData'
p6
(dp7
S'vhints'
p8
((dp9
S'position'
p10
I185
sS'width'
p11
I166
s(dp12
g10
I214
sg11
I151
s(dp13
g10
I332
sg11
I33
s(dp14
g10
I1463
sg11
I149
s(dp15
g10
I1463
sg11
I39
s(dp16
g10
I1477
sg11
I164
stp17
ssS'com.typemytype.robofont.guides'
p18
((dp19
S'y'
I378
sS'x'
I548
sS'magnetic'
p20
I5
sS'angle'
p21
I0
sS'isGlobal'
p22
I00
stp23
sS'com.typemytype.robofont.layerData'
p24
(dp25
sS'org.robofab.postScriptHintData'
p26
(dp27
s."
VStem: 79 71 91 65 142 14 628 64 628 17 634 70
AnchorPoint: "top" 398 626 basechar 0
LayerCount: 2
Fore
SplineSet
76 0 m 257
 170 0 l 257
 170 213 l 257
 173 490 l 257
 356 81 l 257
 430 81 l 257
 614 486 l 257
 618 215 l 257
 618 0 l 257
 711 0 l 257
 711 221 l 257
 701 626 l 257
 591 626 l 257
 395 194 l 257
 199 626 l 257
 86 626 l 257
 76 220 l 257
 76 0 l 257
EndSplineSet
EndChar

StartChar: N
Encoding: 78 78 69
Width: 663
VWidth: 0
GlyphClass: 2
Flags: HW
PickledData: "(dp1
S'org.pippin.gimp.org.kernagic'
p2
(dp3
S'lstem'
p4
I0
sS'rstem'
p5
I0
ssS'com.typemytype.robofont.layerData'
p6
(dp7
sS'org.robofab.postScriptHintData'
p8
(dp9
s."
AnchorPoint: "top" 336 626 basechar 0
AnchorPoint: "bot" 332 0 basechar 0
LayerCount: 2
Fore
SplineSet
489 626 m 261
 489 307 l 257
 494 131 l 257
 182 626 l 261
 84 626 l 261
 84 0 l 257
 177 0 l 257
 177 300 l 257
 170 487 l 261
 478 0 l 257
 579 0 l 257
 579 626 l 261
 489 626 l 261
EndSplineSet
EndChar

StartChar: O
Encoding: 79 79 74
Width: 697
VWidth: 0
GlyphClass: 2
Flags: HW
PickledData: "(dp1
S'org.pippin.gimp.org.kernagic'
p2
(dp3
S'lstem'
p4
I0
sS'rstem'
p5
I0
ssS'com.fontlab.hintData'
p6
(dp7
S'vhints'
p8
((dp9
S'position'
p10
I150
sS'width'
p11
I122
s(dp12
g10
I1390
sg11
I122
stp13
sS'hhints'
p14
((dp15
g10
I-19
sg11
I96
s(dp16
g10
I1372
sg11
I96
stp17
ssS'com.typemytype.robofont.guides'
p18
(tsS'com.typemytype.robofont.layerData'
p19
(dp20
sS'org.robofab.postScriptHintData'
p21
(dp22
s."
HStem: -8 41 589 41
VStem: 64 53 597 53
AnchorPoint: "top" 350 625 basechar 0
LayerCount: 2
Fore
SplineSet
533 309 m 256
 533 162 483 68 350 68 c 256
 217 68 166 162 166 309 c 256
 166 460 222 557 351 557 c 256
 481 557 533 459 533 309 c 256
63 310 m 256
 63 113 158 -9 351 -9 c 256
 543 -9 636 115 636 309 c 256
 636 509 538 634 351 634 c 256
 161 634 63 510 63 310 c 256
EndSplineSet
Substitution2: "Single Substitution lookup 4 subtable" ordmasculine
EndChar

StartChar: OE
Encoding: 338 338 75
Width: 999
VWidth: 0
GlyphClass: 2
Flags: HW
PickledData: "(dp1
S'org.pippin.gimp.org.kernagic'
p2
(dp3
S'lstem'
p4
I0
sS'rstem'
p5
I0
ssS'com.typemytype.robofont.layerData'
p6
(dp7
S'b'
(dp8
S'name'
p9
S'OE'
p10
sS'lib'
p11
(dp12
sS'unicodes'
p13
(tsS'width'
p14
I2367
sS'contours'
p15
(tsS'components'
p16
(tsS'anchors'
p17
(tsssS'org.robofab.postScriptHintData'
p18
(dp19
s."
LayerCount: 2
Fore
SplineSet
524 310 m 256
 524 164 473 67 336 67 c 256
 199 67 148 164 148 310 c 256
 148 461 203 560 337 560 c 256
 471 560 524 461 524 310 c 256
54 310 m 256
 54 112 148 -8 337 -8 c 256
 421 -8 484 19 524 67 c 257
 524 0 l 257
 938 0 l 257
 942 72 l 257
 614 72 l 257
 614 287 l 257
 910 287 l 257
 910 358 l 257
 614 358 l 257
 614 555 l 257
 931 555 l 257
 935 625 l 257
 524 625 l 257
 524 556 l 257
 484 606 420 635 337 635 c 256
 151 635 54 511 54 310 c 256
EndSplineSet
EndChar

StartChar: Oslash
Encoding: 216 216 83
Width: 698
VWidth: 0
GlyphClass: 2
Flags: HW
PickledData: "(dp1
S'org.pippin.gimp.org.kernagic'
p2
(dp3
S'lstem'
p4
I0
sS'rstem'
p5
I0
ssS'com.typemytype.robofont.layerData'
p6
(dp7
sS'org.robofab.postScriptHintData'
p8
(dp9
s."
AnchorPoint: "top" 351 625 basechar 0
LayerCount: 2
Fore
SplineSet
350 68 m 256
 330 68 312 70 295 74 c 257
 464 517 l 257
 512 476 533 402 533 309 c 256
 533 162 483 68 350 68 c 256
251 97 m 257
 191 134 166 210 166 309 c 256
 166 460 222 557 351 557 c 256
 377 557 400 553 420 546 c 257
 251 97 l 257
226 -108 m 257
 267 0 l 257
 292 -6 320 -9 351 -9 c 256
 543 -9 636 115 636 309 c 256
 636 448 588 550 497 600 c 257
 538 710 l 257
 490 730 l 257
 448 620 l 257
 419 630 387 634 351 634 c 256
 161 634 63 510 63 310 c 256
 63 164 115 60 220 15 c 257
 179 -91 l 257
 226 -108 l 257
EndSplineSet
EndChar

StartChar: P
Encoding: 80 80 86
Width: 573
VWidth: 0
GlyphClass: 2
Flags: HW
PickledData: "(dp1
S'org.pippin.gimp.org.kernagic'
p2
(dp3
S'lstem'
p4
I0
sS'rstem'
p5
I807
ssS'com.typemytype.robofont.layerData'
p6
(dp7
sS'org.robofab.postScriptHintData'
p8
(dp9
s."
AnchorPoint: "top" 301 625 basechar 0
LayerCount: 2
Fore
SplineSet
84 617 m 257
 84 0 l 257
 184 0 l 257
 184 261 l 257
 215 258 243 258 269 258 c 256
 483 258 535 338 535 452 c 256
 535 571 469 628 266 628 c 256
 214 628 154 624 84 617 c 257
184 330 m 257
 184 556 l 257
 218 559 248 561 274 561 c 256
 415 561 443 518 443 448 c 256
 443 373 415 326 265 326 c 256
 241 326 214 327 184 330 c 257
EndSplineSet
EndChar

StartChar: Q
Encoding: 81 81 87
Width: 690
VWidth: 0
GlyphClass: 2
Flags: HW
PickledData: "(dp1
S'org.pippin.gimp.org.kernagic'
p2
(dp3
S'lstem'
p4
I0
sS'rstem'
p5
I0
ssS'com.typemytype.robofont.layerData'
p6
(dp7
sS'org.robofab.postScriptHintData'
p8
(dp9
s."
LayerCount: 2
Fore
SplineSet
347 20 m 257
 351 8 489 -182 507 -198 c 257
 570 -149 l 257
 552 -133 444 17 433 34 c 257
 347 20 l 257
EndSplineSet
Refer: 74 79 N 1 0 0 1 0 0 2
EndChar

StartChar: R
Encoding: 82 82 88
Width: 588
VWidth: 0
GlyphClass: 2
Flags: HW
PickledData: "(dp1
S'org.pippin.gimp.org.kernagic'
p2
(dp3
S'lstem'
p4
I0
sS'rstem'
p5
I839
ssS'com.typemytype.robofont.layerData'
p6
(dp7
sS'com.fontlab.hintData'
p8
(dp9
S'vhints'
p10
((dp11
S'position'
p12
I1122
sS'width'
p13
I117
stp14
sS'hhints'
p15
((dp16
g12
I722
sg13
I96
s(dp17
g12
I1355
sg13
I94
stp18
ssS'org.robofab.postScriptHintData'
p19
(dp20
s."
HStem: 310 41 582 40
VStem: 482 50
AnchorPoint: "top" 309 625 basechar 0
AnchorPoint: "bot" 310 0 basechar 0
LayerCount: 2
Fore
SplineSet
541 456 m 256
 541 582 474 629 289 629 c 256
 233 629 164 625 84 617 c 257
 84 0 l 257
 184 0 l 257
 184 280 l 257
 313 280 l 257
 455 0 l 257
 562 0 l 257
 562 8 l 257
 412 292 l 257
 488 312 541 359 541 456 c 256
184 555 m 257
 225 559 261 560 291 560 c 256
 417 560 451 528 451 457 c 256
 451 376 417 345 288 345 c 258
 184 345 l 257
 184 555 l 257
EndSplineSet
EndChar

StartChar: S
Encoding: 83 83 92
Width: 524
VWidth: 0
GlyphClass: 2
Flags: HW
PickledData: "(dp1
S'org.pippin.gimp.org.kernagic'
p2
(dp3
S'lstem'
p4
I185
sS'rstem'
p5
I826
ssS'com.typemytype.robofont.guides'
p6
((dp7
S'y'
I973
sS'x'
I1035
sS'magnetic'
p8
I5
sS'angle'
p9
F90
sS'isGlobal'
p10
I00
s(dp11
S'y'
I382
sS'x'
I75
sg8
I5
sg9
F90
sg10
I00
stp12
sS'com.typemytype.robofont.layerData'
p13
(dp14
sS'org.robofab.postScriptHintData'
p15
(dp16
s."
AnchorPoint: "top" 266 631 basechar 0
AnchorPoint: "bot" 266 0 basechar 0
LayerCount: 2
Fore
SplineSet
381 166 m 256
 381 94 328 68 257 68 c 256
 203 68 146 90 109 128 c 257
 101 128 l 257
 45 79 l 257
 80 34 153 -9 258 -9 c 256
 368 -9 476 39 476 167 c 256
 476 278 417 311 318 351 c 258
 234 385 l 257
 168 412 147 427 147 474 c 256
 147 540 202 560 265 560 c 256
 321 560 373 538 402 499 c 257
 409 499 l 257
 466 546 l 257
 428 596 356 634 265 634 c 256
 152 634 48 594 48 461 c 256
 48 372 97 343 180 309 c 257
 269 272 l 258
 355 236 381 220 381 166 c 256
EndSplineSet
EndChar

StartChar: T
Encoding: 84 84 98
Width: 503
VWidth: 0
GlyphClass: 2
Flags: HW
PickledData: "(dp1
S'org.pippin.gimp.org.kernagic'
p2
(dp3
S'lstem'
p4
I285
sS'rstem'
p5
I844
ssS'com.typemytype.robofont.layerData'
p6
(dp7
sS'org.robofab.postScriptHintData'
p8
(dp9
s."
AnchorPoint: "top" 254 626 basechar 0
AnchorPoint: "bot" 254 1 basechar 0
LayerCount: 2
Fore
SplineSet
5 626 m 261
 5 555 l 261
 202 555 l 261
 202 0 l 261
 301 0 l 261
 301 555 l 261
 498 555 l 261
 498 626 l 261
 5 626 l 261
EndSplineSet
EndChar

StartChar: Thorn
Encoding: 222 222 103
Width: 541
VWidth: 0
GlyphClass: 2
Flags: HW
PickledData: "(dp1
S'org.pippin.gimp.org.kernagic'
p2
(dp3
S'lstem'
p4
I0
sS'rstem'
p5
I0
ssS'com.typemytype.robofont.layerData'
p6
(dp7
S'b'
(dp8
S'name'
p9
S'Thorn'
p10
sS'lib'
p11
(dp12
sS'unicodes'
p13
(tsS'width'
p14
I1192
sS'contours'
p15
(tsS'components'
p16
(tsS'anchors'
p17
(tsssS'org.robofab.postScriptHintData'
p18
(dp19
s."
LayerCount: 2
Fore
SplineSet
80 0 m 257
 179 0 l 257
 179 182 l 257
 254 182 l 258
 419 182 478 243 478 358 c 256
 478 474 398 514 250 514 c 258
 179 514 l 257
 179 638 l 257
 80 638 l 257
 80 0 l 257
179 447 m 257
 251 447 l 258
 342 447 381 423 381 355 c 256
 381 280 350 251 246 251 c 258
 179 251 l 257
 179 447 l 257
EndSplineSet
EndChar

StartChar: U
Encoding: 85 85 104
Width: 630
VWidth: 0
GlyphClass: 2
Flags: HW
PickledData: "(dp1
S'org.pippin.gimp.org.kernagic'
p2
(dp3
S'lstem'
p4
I0
sS'rstem'
p5
I0
ssS'com.typemytype.robofont.layerData'
p6
(dp7
sS'org.robofab.postScriptHintData'
p8
(dp9
s."
AnchorPoint: "top" 318 626 basechar 0
AnchorPoint: "bot" 315 1 basechar 0
LayerCount: 2
Fore
SplineSet
459 626 m 261
 459 237 l 262
 459 126 415 69 314 69 c 260
 211 69 170 126 170 237 c 262
 170 626 l 261
 71 626 l 261
 71 233 l 262
 71 89 145 -8 314 -8 c 260
 481 -8 558 90 558 232 c 262
 558 626 l 261
 459 626 l 261
EndSplineSet
EndChar

StartChar: V
Encoding: 86 86 115
Width: 612
VWidth: 0
GlyphClass: 2
Flags: HW
PickledData: "(dp1
S'org.pippin.gimp.org.kernagic'
p2
(dp3
S'lstem'
p4
I0
sS'rstem'
p5
I0
ssS'com.typemytype.robofont.layerData'
p6
(dp7
sS'org.robofab.postScriptHintData'
p8
(dp9
s."
LayerCount: 2
Fore
SplineSet
254 0 m 261
 352 0 l 261
 586 626 l 261
 484 626 l 261
 424 451 361 279 304 101 c 261
 248 279 187 451 127 626 c 261
 27 626 l 261
 254 0 l 261
EndSplineSet
EndChar

StartChar: W
Encoding: 87 87 116
Width: 855
VWidth: 0
GlyphClass: 2
Flags: HW
PickledData: "(dp1
S'org.pippin.gimp.org.kernagic'
p2
(dp3
S'lstem'
p4
I0
sS'rstem'
p5
I0
ssS'com.typemytype.robofont.layerData'
p6
(dp7
sS'org.robofab.postScriptHintData'
p8
(dp9
s."
AnchorPoint: "top" 432 626 basechar 0
AnchorPoint: "bot" 428 0 basechar 0
LayerCount: 2
Fore
SplineSet
431 494 m 257
 569 0 l 261
 662 0 l 261
 825 626 l 257
 729 626 l 257
 614 127 l 261
 475 615 l 257
 386 615 l 257
 246 130 l 261
 122 626 l 257
 31 626 l 257
 193 0 l 261
 287 0 l 261
 431 494 l 257
EndSplineSet
EndChar

StartChar: X
Encoding: 88 88 121
Width: 565
VWidth: 0
GlyphClass: 2
Flags: HW
PickledData: "(dp1
S'org.pippin.gimp.org.kernagic'
p2
(dp3
S'lstem'
p4
I0
sS'rstem'
p5
I0
ssS'com.typemytype.robofont.layerData'
p6
(dp7
sS'org.robofab.postScriptHintData'
p8
(dp9
s."
LayerCount: 2
Fore
SplineSet
338 315 m 261
 542 626 l 261
 436 626 l 261
 287 393 l 261
 131 626 l 261
 22 626 l 261
 224 320 l 261
 15 0 l 261
 117 0 l 261
 277 241 l 261
 437 0 l 261
 548 0 l 261
 338 315 l 261
EndSplineSet
EndChar

StartChar: Y
Encoding: 89 89 122
Width: 583
VWidth: 0
GlyphClass: 2
Flags: HW
PickledData: "(dp1
S'org.pippin.gimp.org.kernagic'
p2
(dp3
S'lstem'
p4
I0
sS'rstem'
p5
I0
ssS'com.typemytype.robofont.layerData'
p6
(dp7
sS'org.robofab.postScriptHintData'
p8
(dp9
s."
AnchorPoint: "top" 293 626 basechar 0
LayerCount: 2
Fore
SplineSet
343 227 m 261
 558 626 l 261
 457 626 l 261
 293 316 l 261
 124 626 l 261
 26 626 l 261
 243 228 l 261
 243 0 l 257
 343 0 l 257
 343 227 l 261
EndSplineSet
EndChar

StartChar: Z
Encoding: 90 90 127
Width: 516
VWidth: 0
GlyphClass: 2
Flags: HW
PickledData: "(dp1
S'org.pippin.gimp.org.kernagic'
p2
(dp3
S'lstem'
p4
I0
sS'rstem'
p5
I0
ssS'com.typemytype.robofont.layerData'
p6
(dp7
sS'org.robofab.postScriptHintData'
p8
(dp9
s."
AnchorPoint: "top" 284 626 basechar 0
AnchorPoint: "bot" 274 0 basechar 0
LayerCount: 2
Fore
SplineSet
40 0 m 257
 488 0 l 257
 489 71 l 257
 156 71 l 257
 484 563 l 257
 483 626 l 257
 52 626 l 257
 54 556 l 257
 374 556 l 257
 40 62 l 257
 40 0 l 257
EndSplineSet
EndChar

StartChar: a
Encoding: 97 97 131
Width: 484
VWidth: 0
GlyphClass: 2
Flags: W
PickledData: "(dp1
S'org.pippin.gimp.org.kernagic'
p2
(dp3
S'lstem'
p4
I0
sS'rstem'
p5
I0
ssS'com.fontlab.hintData'
p6
(dp7
S'vhints'
p8
((dp9
S'position'
p10
I126
sS'width'
p11
I120
s(dp12
g10
I842
sg11
I32
s(dp13
g10
I875
sg11
I86
stp14
sS'hhints'
p15
((dp16
g10
I-15
sg11
I92
s(dp17
g10
I535
sg11
I82
s(dp18
g10
I983
sg11
I92
stp19
ssS'com.typemytype.robofont.guides'
p20
(tsS'com.typemytype.robofont.layerData'
p21
(dp22
sS'org.robofab.postScriptHintData'
p23
(dp24
s."
HStem: -8 61<151.54 290.404> 205 54<159.298 253> 405 70<125.028 303.546>
VStem: 46 87<73.0148 179.993> 331 92<85.9062 108 296 378.391> 348 75<0 54>
AnchorPoint: "top" 241 465 basechar 0
AnchorPoint: "bot" 225 0 basechar 0
LayerCount: 2
Fore
SplineSet
212 53 m 256xf8
 169 53 133 73 133 127 c 256
 133 181 167 205 253 205 c 258
 331 205 l 257
 331 108 l 257
 305 76 266 53 212 53 c 256xf8
46 127 m 256
 46 36 106 -8 195 -8 c 256
 260 -8 305 13 341 54 c 257
 348 0 l 257
 423 0 l 257xf4
 423 296 l 258
 423 425 347 475 242 475 c 256
 180 475 113 460 62 429 c 257
 86 364 l 257
 132 392 192 405 235 405 c 256
 298 405 331 377 331 308 c 258
 331 258 l 257
 239 259 l 257
 236 259 l 258
 114 259 46 216 46 127 c 256
EndSplineSet
Substitution2: "Single Substitution lookup 3 subtable" ordfeminine
EndChar

StartChar: acute
Encoding: 180 180 135
Width: 319
VWidth: 0
GlyphClass: 4
Flags: HW
PickledData: "(dp1
S'org.robofab.postScriptHintData'
p2
(dp3
sS'com.typemytype.robofont.layerData'
p4
(dp5
s."
AnchorPoint: "top" 165 464 mark 0
LayerCount: 2
Fore
SplineSet
134 519 m 257
 193 519 l 257
 324 683 l 257
 216 683 l 257
 134 519 l 257
EndSplineSet
EndChar

StartChar: ae
Encoding: 230 230 137
Width: 719
VWidth: 0
GlyphClass: 2
Flags: HW
PickledData: "(dp1
S'org.pippin.gimp.org.kernagic'
p2
(dp3
S'lstem'
p4
I0
sS'rstem'
p5
I0
ssS'com.typemytype.robofont.layerData'
p6
(dp7
sS'com.fontlab.hintData'
p8
(dp9
S'vhints'
p10
((dp11
S'position'
p12
I126
sS'width'
p13
I119
s(dp14
g12
I817
sg13
I117
s(dp15
g12
I817
sg13
I82
s(dp16
g12
I1556
sg13
I98
stp17
sS'hhints'
p18
((dp19
g12
I-14
sg13
I98
s(dp20
g12
I518
sg13
I82
s(dp21
g12
I983
sg13
I92
stp22
ssS'org.robofab.postScriptHintData'
p23
(dp24
s."
HStem: -6 42 222 35 422 40
VStem: 54 51 351 50 351 35 668 42
AnchorPoint: "top" 416 464 basechar 0
LayerCount: 2
Fore
SplineSet
525 408 m 256
 591 408 613 371 613 326 c 256
 613 290 600 258 475 258 c 256
 454 258 429 259 400 261 c 257
 406 362 454 408 525 408 c 256
317 147 m 257
 313 90 266 53 196 53 c 256
 159 53 113 71 113 127 c 256
 113 181 140 215 226 215 c 256
 241 215 287 213 314 210 c 257
 314 206 315 151 317 147 c 257
688 328 m 256
 688 404 634 473 523 473 c 256
 455 473 401 448 368 389 c 257
 350 449 297 473 222 473 c 256
 150 473 94 454 37 418 c 257
 67 360 l 257
 121 393 176 404 219 404 c 256
 282 404 314 379 314 306 c 258
 314 265 l 257
 285 269 229 269 212 269 c 256
 87 269 27 217 27 127 c 256
 27 38 84 -5 168 -8 c 257
 243 -8 317 16 355 83 c 257
 388 25 444 -9 527 -9 c 256
 595 -9 653 12 691 40 c 257
 668 98 l 257
 630 76 592 57 538 57 c 256
 464 57 407 90 399 201 c 257
 429 199 457 199 484 199 c 256
 603 199 688 222 688 328 c 256
EndSplineSet
EndChar

StartChar: ampersand
Encoding: 38 38 142
Width: 609
VWidth: 0
GlyphClass: 2
Flags: HW
PickledData: "(dp1
S'org.pippin.gimp.org.kernagic'
p2
(dp3
S'lstem'
p4
I0
sS'rstem'
p5
I0
ssS'com.typemytype.robofont.layerData'
p6
(dp7
sS'com.fontlab.hintData'
p8
(dp9
S'vhints'
p10
((dp11
S'position'
p12
I135
sS'width'
p13
I121
s(dp14
g12
I312
sg13
I105
s(dp15
g12
I917
sg13
I110
stp16
sS'hhints'
p17
((dp18
g12
I-19
sg13
I96
s(dp19
g12
I1372
sg13
I96
stp20
ssS'org.robofab.postScriptHintData'
p21
(dp22
s."
HStem: -8 41 589 41
VStem: 58 52 134 45 394 47
LayerCount: 2
Fore
SplineSet
262 580 m 256
 313 580 342 553 342 505 c 256
 342 446 288 409 232 379 c 257
 187 433 173 464 173 504 c 256
 173 551 212 580 262 580 c 256
40 173 m 256
 40 62 120 -8 242 -8 c 256
 324 -8 386 24 435 70 c 257
 514 -11 l 257
 564 37 l 257
 481 121 l 257
 525 178 557 244 582 293 c 257
 528 329 l 257
 493 262 463 211 433 171 c 257
 272 334 l 257
 345 374 418 422 418 507 c 256
 418 598 345 641 260 641 c 256
 169 641 97 586 97 499 c 256
 97 445 124 395 171 346 c 257
 95 306 40 262 40 173 c 256
251 59 m 256
 170 59 122 102 122 175 c 256
 122 236 162 272 212 298 c 257
 388 119 l 257
 344 77 302 59 251 59 c 256
EndSplineSet
EndChar

StartChar: uni02BC
Encoding: 700 700 144
Width: 276
VWidth: 0
GlyphClass: 2
Flags: HW
PickledData: "(dp1
S'org.robofab.postScriptHintData'
p2
(dp3
sS'com.typemytype.robofont.layerData'
p4
(dp5
s."
LayerCount: 2
Fore
SplineSet
44 490 m 257
 113 490 l 257
 113 490 151 633 160 680 c 257
 70 680 l 257
 67 656 44 490 44 490 c 257
EndSplineSet
EndChar

StartChar: approxequal
Encoding: 8776 8776 145
Width: 506
VWidth: 0
GlyphClass: 2
Flags: HW
PickledData: "(dp1
S'org.pippin.gimp.org.kernagic'
p2
(dp3
S'lstem'
p4
I0
sS'rstem'
p5
I0
ssS'com.typemytype.robofont.layerData'
p6
(dp7
S'b'
(dp8
S'name'
p9
S'approxequal'
p10
sS'lib'
p11
(dp12
sS'unicodes'
p13
(tsS'width'
p14
I1136
sS'contours'
p15
(tsS'components'
p16
(tsS'anchors'
p17
(tsssS'org.robofab.postScriptHintData'
p18
(dp19
s."
LayerCount: 2
Fore
SplineSet
68 174 m 257
 85 214 115 243 152 243 c 256
 180 243 209 230 246 213 c 256
 288 192 321 178 355 178 c 256
 417 178 448 215 468 274 c 257
 437 310 l 257
 419 269 387 243 354 243 c 256
 329 243 297 258 259 276 c 256
 215 297 189 309 153 309 c 256
 92 309 54 268 36 213 c 257
 68 174 l 257
68 327 m 257
 85 367 115 396 152 396 c 256
 180 396 209 383 246 366 c 256
 288 345 321 331 355 331 c 256
 417 331 448 368 468 427 c 257
 437 463 l 257
 419 422 387 396 354 396 c 256
 329 396 297 411 259 429 c 256
 215 450 189 461 153 461 c 256
 92 461 54 421 36 366 c 257
 68 327 l 257
EndSplineSet
EndChar

StartChar: asciicircum
Encoding: 94 94 148
Width: 573
VWidth: 0
GlyphClass: 2
Flags: HW
PickledData: "(dp1
S'org.pippin.gimp.org.kernagic'
p2
(dp3
S'lstem'
p4
I0
sS'rstem'
p5
I0
ssS'com.typemytype.robofont.layerData'
p6
(dp7
sS'org.robofab.postScriptHintData'
p8
(dp9
s."
LayerCount: 2
Fore
SplineSet
265 625 m 257
 40 126 l 257
 133 126 l 257
 287 481 l 257
 440 126 l 257
 533 126 l 257
 306 625 l 257
 265 625 l 257
EndSplineSet
EndChar

StartChar: asciitilde
Encoding: 126 126 149
Width: 511
VWidth: 0
GlyphClass: 2
Flags: HW
PickledData: "(dp1
S'org.pippin.gimp.org.kernagic'
p2
(dp3
S'lstem'
p4
I0
sS'rstem'
p5
I0
ssS'com.typemytype.robofont.layerData'
p6
(dp7
S'b'
(dp8
S'name'
p9
S'asciitilde'
p10
sS'lib'
p11
(dp12
sS'unicodes'
p13
(tsS'width'
p14
I1192
sS'contours'
p15
(tsS'components'
p16
(tsS'anchors'
p17
(tsssS'org.robofab.postScriptHintData'
p18
(dp19
s."
LayerCount: 2
Fore
SplineSet
65 208 m 257
 83 244 117 275 154 275 c 256
 184 275 214 261 254 243 c 256
 290 226 320 214 353 214 c 256
 408 214 448 250 469 300 c 257
 444 345 l 257
 422 307 390 280 356 280 c 256
 331 280 299 295 259 313 c 256
 219 331 190 342 156 342 c 256
 99 342 61 304 41 257 c 257
 65 208 l 257
EndSplineSet
EndChar

StartChar: asterisk
Encoding: 42 42 150
Width: 414
VWidth: 0
GlyphClass: 2
Flags: HW
PickledData: "(dp1
S'org.pippin.gimp.org.kernagic'
p2
(dp3
S'lstem'
p4
I0
sS'rstem'
p5
I0
ssS'com.typemytype.robofont.layerData'
p6
(dp7
sS'org.robofab.postScriptHintData'
p8
(dp9
s."
LayerCount: 2
Fore
SplineSet
132 243 m 257
 207 387 l 257
 287 243 l 257
 305 254 336 273 354 284 c 257
 326 321 270 396 252 418 c 257
 401 451 l 257
 379 527 l 257
 234 466 l 257
 249 633 l 257
 169 633 l 257
 184 466 l 257
 40 527 l 257
 18 451 l 257
 164 418 l 257
 64 284 l 257
 132 243 l 257
EndSplineSet
EndChar

StartChar: at
Encoding: 64 64 151
Width: 839
VWidth: 0
GlyphClass: 2
Flags: HW
PickledData: "(dp1
S'org.pippin.gimp.org.kernagic'
p2
(dp3
S'lstem'
p4
I0
sS'rstem'
p5
I0
ssS'com.typemytype.robofont.layerData'
p6
(dp7
sS'org.robofab.postScriptHintData'
p8
(dp9
s."
LayerCount: 2
Fore
SplineSet
391 155 m 256
 343 155 322 192 322 254 c 256
 322 347 374 421 450 421 c 256
 462 421 487 418 505 414 c 257
 488 306 l 257
 474 215 453 155 391 155 c 256
411 -77 m 256
 495 -77 583 -58 638 -18 c 257
 617 34 l 257
 559 -2 484 -16 412 -16 c 256
 236 -16 139 104 139 270 c 256
 139 444 253 585 438 585 c 256
 620 585 706 472 706 334 c 256
 706 217 655 158 608 158 c 256
 579 158 557 182 557 217 c 256
 557 271 573 351 585 441 c 257
 549 459 490 476 443 476 c 256
 316 476 249 362 249 253 c 256
 249 166 296 97 384 97 c 256
 443 97 484 142 505 193 c 257
 518 135 580 124 608 99 c 257
 684 99 774 178 774 331 c 256
 774 524 628 647 440 647 c 256
 222 647 63 486 63 272 c 256
 63 54 205 -77 411 -77 c 256
EndSplineSet
EndChar

StartChar: b
Encoding: 98 98 153
Width: 523
VWidth: 0
GlyphClass: 2
Flags: HW
PickledData: "(dp1
S'org.pippin.gimp.org.kernagic'
p2
(dp3
S'lstem'
p4
I0
sS'rstem'
p5
I0
ssS'com.fontlab.hintData'
p6
(dp7
S'vhints'
p8
((dp9
S'position'
p10
I193
sS'width'
p11
I125
s(dp12
g10
I193
sg11
I94
s(dp13
g10
I1018
sg11
I122
stp14
sS'hhints'
p15
((dp16
g10
I-19
sg11
I92
s(dp17
g10
I982
sg11
I92
stp18
ssS'com.typemytype.robofont.guides'
p19
(tsS'com.typemytype.robofont.layerData'
p20
(dp21
sS'org.robofab.postScriptHintData'
p22
(dp23
s."
HStem: -8 40 421 40
VStem: 83 54 83 40 437 53
AnchorPoint: "top" 293 464 basechar 0
LayerCount: 2
Fore
SplineSet
272 57 m 256
 223 57 183 76 158 111 c 257
 158 240 l 258
 158 347 198 408 280 408 c 256
 357 408 384 341 384 233 c 256
 384 121 348 57 272 57 c 256
295 475 m 256
 237 475 185 450 156 381 c 257
 160 479 l 257
 160 670 l 257
 68 661 l 257
 68 0 l 257
 146 0 l 257
 150 52 l 257
 176 19 221 -9 283 -9 c 256
 410 -9 479 89 479 234 c 256
 479 374 421 475 295 475 c 256
EndSplineSet
EndChar

StartChar: backslash
Encoding: 92 92 154
Width: 401
VWidth: 0
GlyphClass: 2
Flags: HW
PickledData: "(dp1
S'org.pippin.gimp.org.kernagic'
p2
(dp3
S'lstem'
p4
I0
sS'rstem'
p5
I0
ssS'com.typemytype.robofont.layerData'
p6
(dp7
S'b'
(dp8
S'name'
p9
S'backslash'
p10
sS'lib'
p11
(dp12
sS'unicodes'
p13
(tsS'width'
p14
I937
sS'contours'
p15
(tsS'components'
p16
(tsS'anchors'
p17
(tsssS'org.robofab.postScriptHintData'
p18
(dp19
s."
LayerCount: 2
Fore
SplineSet
266 -4 m 257
 337 -4 l 257
 113 637 l 257
 41 637 l 257
 266 -4 l 257
EndSplineSet
EndChar

StartChar: bar
Encoding: 124 124 155
Width: 298
VWidth: 0
GlyphClass: 2
Flags: HW
PickledData: "(dp1
S'org.pippin.gimp.org.kernagic'
p2
(dp3
S'lstem'
p4
I0
sS'rstem'
p5
I0
ssS'com.typemytype.robofont.layerData'
p6
(dp7
S'b'
(dp8
S'name'
p9
S'bar'
p10
sS'lib'
p11
(dp12
sS'unicodes'
p13
(tsS'width'
p14
I681
sS'contours'
p15
(tsS'components'
p16
(tsS'anchors'
p17
(tsssS'org.robofab.postScriptHintData'
p18
(dp19
s."
LayerCount: 2
Fore
SplineSet
113 634 m 257
 113 -140 l 257
 183 -140 l 257
 183 634 l 257
 113 634 l 257
EndSplineSet
EndChar

StartChar: braceleft
Encoding: 123 123 156
Width: 377
VWidth: 0
GlyphClass: 2
Flags: HW
PickledData: "(dp1
S'org.pippin.gimp.org.kernagic'
p2
(dp3
S'lstem'
p4
I0
sS'rstem'
p5
I0
ssS'com.typemytype.robofont.layerData'
p6
(dp7
sS'org.robofab.postScriptHintData'
p8
(dp9
s."
LayerCount: 2
Fore
SplineSet
323 -117 m 257
 323 -57 l 257
 261 -57 253 -46 253 35 c 258
 253 147 l 258
 253 216 236 253 167 265 c 257
 236 277 253 313 253 382 c 258
 253 495 l 258
 253 576 261 587 323 587 c 257
 323 648 l 257
 205 648 170 628 170 508 c 258
 170 413 l 258
 170 330 168 300 82 300 c 257
 82 230 l 257
 169 230 170 200 170 117 c 258
 170 22 l 258
 170 -98 205 -117 323 -117 c 257
EndSplineSet
EndChar

StartChar: braceright
Encoding: 125 125 157
Width: 377
VWidth: 0
GlyphClass: 2
Flags: HW
PickledData: "(dp1
S'org.pippin.gimp.org.kernagic'
p2
(dp3
S'lstem'
p4
I0
sS'rstem'
p5
I0
ssS'com.typemytype.robofont.layerData'
p6
(dp7
sS'org.robofab.postScriptHintData'
p8
(dp9
s."
LayerCount: 2
Fore
SplineSet
57 -117 m 257
 175 -117 211 -98 211 22 c 258
 211 117 l 258
 211 200 212 230 299 230 c 257
 299 300 l 257
 213 300 211 330 211 413 c 258
 211 508 l 258
 211 628 175 648 57 648 c 257
 57 587 l 257
 119 587 128 576 128 495 c 258
 128 382 l 258
 128 313 145 277 214 265 c 257
 145 253 128 216 128 147 c 258
 128 35 l 258
 128 -46 119 -57 57 -57 c 257
 57 -117 l 257
EndSplineSet
EndChar

StartChar: bracketleft
Encoding: 91 91 158
Width: 352
VWidth: 0
GlyphClass: 2
Flags: HW
PickledData: "(dp1
S'org.pippin.gimp.org.kernagic'
p2
(dp3
S'lstem'
p4
I0
sS'rstem'
p5
I0
ssS'com.typemytype.robofont.layerData'
p6
(dp7
sS'org.robofab.postScriptHintData'
p8
(dp9
s."
LayerCount: 2
Fore
SplineSet
94 -109 m 257
 292 -109 l 257
 292 -47 l 257
 178 -47 l 257
 178 572 l 257
 292 572 l 257
 292 635 l 257
 94 635 l 257
 94 -109 l 257
EndSplineSet
EndChar

StartChar: bracketright
Encoding: 93 93 159
Width: 414
VWidth: 0
GlyphClass: 2
Flags: HW
PickledData: "(dp1
S'org.pippin.gimp.org.kernagic'
p2
(dp3
S'lstem'
p4
I0
sS'rstem'
p5
I0
ssS'com.typemytype.robofont.layerData'
p6
(dp7
sS'org.robofab.postScriptHintData'
p8
(dp9
s."
LayerCount: 2
Fore
SplineSet
125 -109 m 257
 322 -109 l 257
 322 635 l 257
 125 635 l 257
 125 572 l 257
 237 572 l 257
 237 -47 l 257
 125 -47 l 257
 125 -109 l 257
EndSplineSet
EndChar

StartChar: breve
Encoding: 728 728 160
Width: 379
VWidth: 0
GlyphClass: 4
Flags: HW
PickledData: "(dp1
S'org.robofab.postScriptHintData'
p2
(dp3
sS'com.typemytype.robofont.layerData'
p4
(dp5
s."
AnchorPoint: "top" 185 459 mark 0
LayerCount: 2
Fore
SplineSet
184 556 m 256
 247 556 294 592 294 663 c 257
 238 663 l 257
 238 627 211 610 184 610 c 256
 157 610 131 627 131 663 c 257
 74 663 l 257
 74 592 121 556 184 556 c 256
EndSplineSet
EndChar

StartChar: uni0311
Encoding: 785 785 161
Width: 348
VWidth: 0
GlyphClass: 4
Flags: HW
PickledData: "(dp1
S'org.robofab.postScriptHintData'
p2
(dp3
sS'com.typemytype.robofont.layerData'
p4
(dp5
s."
AnchorPoint: "top" 180 459 mark 0
LayerCount: 2
Fore
SplineSet
69 556 m 257
 125 556 l 257
 125 592 151 608 178 608 c 256
 205 608 233 592 233 556 c 257
 288 556 l 257
 288 627 241 663 178 663 c 256
 115 663 69 627 69 556 c 257
EndSplineSet
EndChar

StartChar: brokenbar
Encoding: 166 166 162
Width: 292
VWidth: 0
GlyphClass: 2
Flags: HW
PickledData: "(dp1
S'org.pippin.gimp.org.kernagic'
p2
(dp3
S'lstem'
p4
I0
sS'rstem'
p5
I0
ssS'com.typemytype.robofont.layerData'
p6
(dp7
S'b'
(dp8
S'name'
p9
S'brokenbar'
p10
sS'lib'
p11
(dp12
sS'unicodes'
p13
(tsS'width'
p14
I653
sS'contours'
p15
(tsS'components'
p16
(tsS'anchors'
p17
(tsssS'org.robofab.postScriptHintData'
p18
(dp19
s."
LayerCount: 2
Fore
SplineSet
113 663 m 257
 113 346 l 257
 178 346 l 257
 178 663 l 257
 113 663 l 257
113 207 m 257
 113 -111 l 257
 178 -111 l 257
 178 207 l 257
 113 207 l 257
EndSplineSet
EndChar

StartChar: bullet
Encoding: 8226 8226 163
Width: 395
VWidth: 0
GlyphClass: 2
Flags: HW
PickledData: "(dp1
S'org.pippin.gimp.org.kernagic'
p2
(dp3
S'lstem'
p4
I0
sS'rstem'
p5
I0
ssS'com.typemytype.robofont.layerData'
p6
(dp7
S'b'
(dp8
S'name'
p9
S'bullet'
p10
sS'lib'
p11
(dp12
sS'unicodes'
p13
(tsS'width'
p14
I908
sS'contours'
p15
(tsS'components'
p16
(tsS'anchors'
p17
(tsssS'org.robofab.postScriptHintData'
p18
(dp19
s."
LayerCount: 2
Fore
SplineSet
193 170 m 256
 269 170 334 226 334 315 c 256
 334 404 271 458 196 458 c 256
 121 458 54 401 54 312 c 256
 54 223 118 170 193 170 c 256
EndSplineSet
EndChar

StartChar: c
Encoding: 99 99 164
Width: 466
VWidth: 0
GlyphClass: 2
Flags: HW
PickledData: "(dp1
S'org.pippin.gimp.org.kernagic'
p2
(dp3
S'lstem'
p4
I0
sS'rstem'
p5
I696
ssS'com.fontlab.hintData'
p6
(dp7
S'vhints'
p8
((dp9
S'position'
p10
I128
sS'width'
p11
I120
stp12
sS'hhints'
p13
((dp14
g10
I-19
sg11
I92
s(dp15
g10
I982
sg11
I92
stp16
ssS'com.typemytype.robofont.guides'
p17
((dp18
S'y'
I417
sS'x'
I962
sS'magnetic'
p19
I5
sS'angle'
p20
F90
sS'isGlobal'
p21
I00
s(dp22
S'y'
I1020
sS'x'
I565
sg19
I5
sg20
F90
sg21
I00
s(dp23
S'y'
I994
sS'x'
I572
sg19
I5
sg20
F90
sg21
I00
stp24
sS'com.typemytype.robofont.layerData'
p25
(dp26
sS'org.robofab.postScriptHintData'
p27
(dp28
s."
HStem: -8 40 421 40
VStem: 54 52
AnchorPoint: "top" 265 465 basechar 0
AnchorPoint: "bot" 260 0 basechar 0
LayerCount: 2
Fore
SplineSet
370 124 m 257
 351 86 321 59 267 59 c 258
 266 59 l 258
 186 59 141 122 141 233 c 256
 141 344 186 407 267 407 c 256
 321 407 352 379 371 341 c 257
 376 341 l 257
 434 373 l 257
 411 427 362 475 263 475 c 256
 130 475 46 381 46 233 c 256
 46 84 130 -9 263 -9 c 256
 362 -9 411 39 434 93 c 257
 376 124 l 257
 370 124 l 257
EndSplineSet
EndChar

StartChar: caron
Encoding: 711 711 166
Width: 390
VWidth: 0
GlyphClass: 4
Flags: HW
PickledData: "(dp1
S'org.robofab.postScriptHintData'
p2
(dp3
sS'com.typemytype.robofont.layerData'
p4
(dp5
s."
AnchorPoint: "top" 193 464 mark 0
LayerCount: 2
Fore
SplineSet
141 534 m 257
 233 534 l 257
 318 687 l 257
 241 687 l 257
 186 592 l 257
 132 687 l 257
 54 687 l 257
 141 534 l 257
EndSplineSet
EndChar

StartChar: caron.alt
Encoding: 65536 -1 167
Width: 304
VWidth: 0
GlyphClass: 4
Flags: HW
PickledData: "(dp1
S'org.robofab.postScriptHintData'
p2
(dp3
sS'com.typemytype.robofont.layerData'
p4
(dp5
s."
AnchorPoint: "caron.alt" 76 464 mark 0
LayerCount: 2
Fore
SplineSet
188 494 m 257
 251 494 l 257
 284 664 l 257
 200 664 l 257
 188 494 l 257
EndSplineSet
EndChar

StartChar: cedilla
Encoding: 184 184 172
Width: 299
VWidth: 0
GlyphClass: 4
Flags: HW
PickledData: "(dp1
S'org.robofab.postScriptHintData'
p2
(dp3
sS'com.typemytype.robofont.layerData'
p4
(dp5
s."
AnchorPoint: "bot" 182 5 mark 0
LayerCount: 2
Fore
SplineSet
160 -174 m 256
 222 -174 268 -141 268 -87 c 256
 268 -40 236 -17 196 -17 c 256
 181 -17 165 -19 149 -25 c 257
 149 -50 l 257
 157 -49 166 -47 172 -47 c 256
 207 -47 216 -68 216 -86 c 256
 216 -115 190 -131 156 -131 c 256
 140 -131 123 -127 105 -120 c 257
 91 -159 l 257
 113 -169 136 -174 160 -174 c 256
EndSplineSet
EndChar

StartChar: cent
Encoding: 162 162 173
Width: 466
VWidth: 0
GlyphClass: 2
Flags: HW
PickledData: "(dp1
S'org.pippin.gimp.org.kernagic'
p2
(dp3
S'lstem'
p4
I0
sS'rstem'
p5
I0
ssS'com.typemytype.robofont.layerData'
p6
(dp7
sS'org.robofab.postScriptHintData'
p8
(dp9
s."
LayerCount: 2
Fore
SplineSet
234 17 m 257
 233 -132 l 257
 284 -132 l 257
 291 17 l 257
 234 17 l 257
237 593 m 257
 233 453 l 257
 287 453 l 257
 289 593 l 257
 237 593 l 257
EndSplineSet
Refer: 164 99 N 1 0 0 1 0 0 2
EndChar

StartChar: circumflex
Encoding: 710 710 174
Width: 384
VWidth: 0
GlyphClass: 4
Flags: HW
PickledData: "(dp1
S'org.robofab.postScriptHintData'
p2
(dp3
sS'com.typemytype.robofont.layerData'
p4
(dp5
s."
AnchorPoint: "top" 187 464 mark 0
LayerCount: 2
Fore
SplineSet
54 541 m 257
 131 541 l 257
 185 638 l 257
 241 541 l 257
 318 541 l 257
 232 695 l 257
 140 695 l 257
 54 541 l 257
EndSplineSet
EndChar

StartChar: colon
Encoding: 58 58 175
Width: 286
VWidth: 0
GlyphClass: 2
Flags: HW
PickledData: "(dp1
S'org.pippin.gimp.org.kernagic'
p2
(dp3
S'lstem'
p4
I0
sS'rstem'
p5
I0
ssS'com.typemytype.robofont.layerData'
p6
(dp7
S'b'
(dp8
S'name'
p9
S'colon'
p10
sS'lib'
p11
(dp12
sS'unicodes'
p13
(tsS'width'
p14
I653
sS'contours'
p15
(tsS'components'
p16
(tsS'anchors'
p17
(tsssS'org.robofab.postScriptHintData'
p18
(dp19
s."
LayerCount: 2
Fore
SplineSet
143 -4 m 256
 180 -4 200 21 200 54 c 256
 200 86 180 111 143 111 c 256
 106 111 85 86 85 54 c 256
 85 21 106 -4 143 -4 c 256
143 353 m 256
 180 353 200 377 200 410 c 256
 200 442 180 469 143 469 c 256
 106 469 85 442 85 410 c 256
 85 377 106 353 143 353 c 256
EndSplineSet
EndChar

StartChar: comma
Encoding: 44 44 176
Width: 274
VWidth: 0
GlyphClass: 2
Flags: HW
PickledData: "(dp1
S'org.pippin.gimp.org.kernagic'
p2
(dp3
S'lstem'
p4
I0
sS'rstem'
p5
I0
ssS'com.typemytype.robofont.layerData'
p6
(dp7
sS'org.robofab.postScriptHintData'
p8
(dp9
s."
LayerCount: 2
Fore
SplineSet
83 -134 m 257
 137 -134 l 257
 188 60 l 257
 188 106 l 257
 99 106 l 257
 99 98 83 -134 83 -134 c 257
EndSplineSet
EndChar

StartChar: uni0326
Encoding: 806 806 177
Width: 262
VWidth: 0
GlyphClass: 4
Flags: HW
PickledData: "(dp1
S'org.robofab.postScriptHintData'
p2
(dp3
s."
AnchorPoint: "bot" 142 0 mark 0
LayerCount: 2
Fore
SplineSet
77 -227 m 257
 138 -227 l 257
 138 -227 185 -69 184 -54 c 257
 100 -54 l 257
 100 -78 77 -227 77 -227 c 257
EndSplineSet
EndChar

StartChar: uni0312
Encoding: 786 786 178
Width: 256
VWidth: 0
GlyphClass: 4
Flags: HW
PickledData: "(dp1
S'org.robofab.postScriptHintData'
p2
(dp3
s."
AnchorPoint: "top" 127 459 mark 0
LayerCount: 2
Fore
SplineSet
80 559 m 257
 78 549 l 257
 171 549 l 257
 171 573 188 766 188 766 c 257
 128 766 l 257
 128 766 80 575 80 559 c 257
EndSplineSet
EndChar

StartChar: copyright
Encoding: 169 169 179
Width: 740
VWidth: 0
GlyphClass: 2
Flags: HW
PickledData: "(dp1
S'org.pippin.gimp.org.kernagic'
p2
(dp3
S'lstem'
p4
I0
sS'rstem'
p5
I0
ssS'com.typemytype.robofont.layerData'
p6
(dp7
sS'org.robofab.postScriptHintData'
p8
(dp9
s."
LayerCount: 2
Fore
SplineSet
339 -13 m 256
 509 -13 670 107 670 312 c 256
 670 518 509 638 339 638 c 256
 170 638 12 518 12 312 c 256
 12 107 170 -13 339 -13 c 256
339 33 m 256
 195 33 63 135 63 312 c 256
 63 488 195 592 339 592 c 256
 483 592 617 488 617 312 c 256
 617 136 483 33 339 33 c 256
348 103 m 256
 391 103 432 114 469 137 c 257
 454 178 l 257
 418 157 384 149 351 149 c 256
 269 149 203 210 203 314 c 256
 203 412 268 476 348 476 c 256
 379 476 417 465 449 444 c 257
 469 486 l 257
 432 511 389 523 345 523 c 256
 237 523 143 439 143 313 c 256
 143 185 239 103 348 103 c 256
EndSplineSet
EndChar

StartChar: currency
Encoding: 164 164 180
Width: 493
VWidth: 0
GlyphClass: 2
Flags: HW
PickledData: "(dp1
S'org.pippin.gimp.org.kernagic'
p2
(dp3
S'lstem'
p4
I0
sS'rstem'
p5
I0
ssS'com.typemytype.robofont.layerData'
p6
(dp7
S'b'
(dp8
S'name'
p9
S'currency'
p10
sS'lib'
p11
(dp12
sS'unicodes'
p13
(tsS'width'
p14
I1164
sS'contours'
p15
(tsS'components'
p16
(tsS'anchors'
p17
(tsssS'org.robofab.postScriptHintData'
p18
(dp19
s."
LayerCount: 2
Fore
SplineSet
371 311 m 256
 371 240 322 181 246 181 c 256
 172 181 121 240 121 311 c 256
 121 382 172 443 246 443 c 256
 321 443 371 382 371 311 c 256
354 452 m 257
 324 477 287 491 246 491 c 256
 206 491 167 478 137 453 c 257
 61 527 l 257
 27 494 l 257
 105 418 l 257
 83 386 72 350 72 311 c 256
 72 272 84 238 105 207 c 257
 28 131 l 257
 61 98 l 257
 137 171 l 257
 168 146 205 134 246 134 c 256
 287 134 324 146 354 171 c 257
 432 97 l 257
 463 131 l 257
 387 207 l 257
 408 238 420 272 420 311 c 256
 420 349 408 386 387 418 c 257
 463 493 l 257
 432 527 l 257
 354 452 l 257
EndSplineSet
EndChar

StartChar: d
Encoding: 100 100 181
Width: 521
VWidth: 0
GlyphClass: 2
Flags: HW
PickledData: "(dp1
S'org.pippin.gimp.org.kernagic'
p2
(dp3
S'lstem'
p4
I0
sS'rstem'
p5
I0
ssS'com.typemytype.robofont.layerData'
p6
(dp7
sS'com.fontlab.hintData'
p8
(dp9
S'vhints'
p10
((dp11
S'position'
p12
I114
sS'width'
p13
I166
s(dp14
g12
I907
sg13
I161
s(dp15
g12
I930
sg13
I138
stp16
sS'hhints'
p17
((dp18
g12
I-19
sg13
I127
s(dp19
g12
I953
sg13
I127
stp20
ssS'org.robofab.postScriptHintData'
p21
(dp22
s."
HStem: -8 54 409 54
VStem: 49 71 389 69 399 59
AnchorPoint: "top" 222 464 basechar 0
AnchorPoint: "caron.alt" 476 506 basechar 0
LayerCount: 2
Fore
SplineSet
258 57 m 256
 181 57 142 119 142 234 c 256
 142 350 182 408 258 408 c 256
 305 408 345 391 367 359 c 257
 367 105 l 257
 342 73 304 57 258 57 c 256
243 -9 m 256
 295 -9 343 16 374 57 c 257
 379 0 l 257
 460 0 l 257
 460 670 l 257
 365 661 l 257
 365 494 l 257
 367 425 l 257
 342 453 302 474 248 474 c 258
 245 474 l 257
 243 474 l 258
 117 474 46 378 46 233 c 256
 46 91 114 -9 243 -9 c 256
EndSplineSet
EndChar

StartChar: dagger
Encoding: 8224 8224 182
Width: 463
VWidth: 0
GlyphClass: 2
Flags: HW
PickledData: "(dp1
S'org.pippin.gimp.org.kernagic'
p2
(dp3
S'lstem'
p4
I0
sS'rstem'
p5
I0
ssS'com.typemytype.robofont.layerData'
p6
(dp7
S'b'
(dp8
S'name'
p9
S'dagger'
p10
sS'lib'
p11
(dp12
sS'unicodes'
p13
(tsS'width'
p14
I1050
sS'contours'
p15
(tsS'components'
p16
(tsS'anchors'
p17
(tsssS'org.robofab.postScriptHintData'
p18
(dp19
s."
LayerCount: 2
Fore
SplineSet
194 637 m 257
 194 474 l 257
 69 474 l 257
 69 418 l 257
 194 418 l 257
 194 24 l 257
 265 24 l 257
 265 418 l 257
 395 418 l 257
 395 474 l 257
 266 474 l 257
 266 637 l 257
 194 637 l 257
EndSplineSet
EndChar

StartChar: daggerdbl
Encoding: 8225 8225 183
Width: 450
VWidth: 0
GlyphClass: 2
Flags: HW
PickledData: "(dp1
S'org.pippin.gimp.org.kernagic'
p2
(dp3
S'lstem'
p4
I0
sS'rstem'
p5
I0
ssS'com.typemytype.robofont.layerData'
p6
(dp7
S'b'
(dp8
S'name'
p9
S'daggerdbl'
p10
sS'lib'
p11
(dp12
sS'unicodes'
p13
(tsS'width'
p14
I1022
sS'contours'
p15
(tsS'components'
p16
(tsS'anchors'
p17
(tsssS'org.robofab.postScriptHintData'
p18
(dp19
s."
LayerCount: 2
Fore
SplineSet
193 631 m 257
 193 467 l 257
 71 467 l 257
 71 411 l 257
 193 411 l 257
 193 237 l 257
 71 237 l 257
 71 184 l 257
 193 184 l 257
 193 6 l 257
 265 6 l 257
 265 184 l 257
 388 184 l 257
 388 237 l 257
 266 237 l 257
 266 411 l 257
 389 411 l 257
 389 467 l 257
 265 467 l 257
 265 631 l 257
 193 631 l 257
EndSplineSet
EndChar

StartChar: uni030F
Encoding: 783 783 184
Width: 400
VWidth: 0
GlyphClass: 4
Flags: HW
PickledData: "(dp1
S'org.robofab.postScriptHintData'
p2
(dp3
sS'com.typemytype.robofont.layerData'
p4
(dp5
s."
AnchorPoint: "top" 216 459 mark 0
LayerCount: 2
Fore
SplineSet
251 536 m 257
 304 536 l 257
 245 692 l 257
 165 692 l 257
 251 536 l 257
126 536 m 257
 177 536 l 257
 113 692 l 257
 24 692 l 257
 126 536 l 257
EndSplineSet
EndChar

StartChar: degree
Encoding: 176 176 187
Width: 370
VWidth: 0
GlyphClass: 2
Flags: HW
PickledData: "(dp1
S'org.pippin.gimp.org.kernagic'
p2
(dp3
S'lstem'
p4
I0
sS'rstem'
p5
I0
ssS'com.typemytype.robofont.layerData'
p6
(dp7
sS'org.robofab.postScriptHintData'
p8
(dp9
s."
LayerCount: 2
Fore
SplineSet
184 383 m 256
 259 383 315 441 315 512 c 256
 315 585 257 638 184 638 c 256
 111 638 54 585 54 512 c 256
 54 439 111 383 184 383 c 256
184 432 m 256
 142 432 107 464 107 512 c 256
 107 559 143 590 184 590 c 256
 225 590 260 559 260 512 c 256
 260 464 226 432 184 432 c 256
EndSplineSet
EndChar

StartChar: dieresis
Encoding: 168 168 188
Width: 415
VWidth: 0
GlyphClass: 4
Flags: HW
PickledData: "(dp1
S'org.robofab.postScriptHintData'
p2
(dp3
sS'com.typemytype.robofont.layerData'
p4
(dp5
s."
AnchorPoint: "top" 207 464 mark 0
LayerCount: 2
Fore
SplineSet
300 548 m 256
 333 548 350 570 350 599 c 256
 350 629 333 650 300 650 c 256
 266 650 250 629 250 599 c 256
 250 570 266 548 300 548 c 256
106 548 m 256
 139 548 156 570 156 599 c 256
 156 629 139 650 106 650 c 256
 72 650 55 629 55 599 c 256
 55 570 72 548 106 548 c 256
EndSplineSet
EndChar

StartChar: divide
Encoding: 247 247 189
Width: 512
VWidth: 0
GlyphClass: 2
Flags: HW
PickledData: "(dp1
S'org.pippin.gimp.org.kernagic'
p2
(dp3
S'lstem'
p4
I0
sS'rstem'
p5
I0
ssS'com.typemytype.robofont.layerData'
p6
(dp7
sS'org.robofab.postScriptHintData'
p8
(dp9
s."
LayerCount: 2
Fore
SplineSet
207 478 m 257
 207 382 l 257
 303 382 l 257
 303 478 l 257
 207 478 l 257
207 111 m 257
 207 12 l 257
 301 12 l 257
 301 111 l 257
 207 111 l 257
42 284 m 257
 42 215 l 257
 466 215 l 257
 466 284 l 257
 42 284 l 257
EndSplineSet
EndChar

StartChar: dollar
Encoding: 36 36 190
Width: 524
VWidth: 0
GlyphClass: 2
Flags: HW
PickledData: "(dp1
S'org.pippin.gimp.org.kernagic'
p2
(dp3
S'lstem'
p4
I0
sS'rstem'
p5
I0
ssS'com.typemytype.robofont.layerData'
p6
(dp7
S'b'
(dp8
S'name'
p9
S'dollar'
p10
sS'lib'
p11
(dp12
sS'unicodes'
p13
(tsS'width'
p14
I1221
sS'contours'
p15
(tsS'components'
p16
(tsS'anchors'
p17
(tsssS'org.robofab.postScriptHintData'
p18
(dp19
s."
LayerCount: 2
Fore
SplineSet
234 19 m 257
 234 -126 l 257
 291 -126 l 257
 294 19 l 257
 234 19 l 257
238 759 m 257
 233 614 l 257
 296 614 l 257
 296 759 l 257
 238 759 l 257
EndSplineSet
Refer: 92 83 N 1 0 0 1 0 0 2
EndChar

StartChar: dotaccent
Encoding: 729 729 191
Width: 210
VWidth: 0
GlyphClass: 4
Flags: HW
PickledData: "(dp1
S'org.robofab.postScriptHintData'
p2
(dp3
sS'com.typemytype.robofont.layerData'
p4
(dp5
s."
AnchorPoint: "top" 105 464 mark 0
LayerCount: 2
Fore
SplineSet
168 616 m 256
 168 652 145 675 105 675 c 256
 65 675 42 652 42 616 c 256
 42 579 65 556 105 556 c 256
 145 556 168 579 168 616 c 256
EndSplineSet
EndChar

StartChar: dotlessi
Encoding: 305 305 192
Width: 233
VWidth: 0
GlyphClass: 2
Flags: HW
PickledData: "(dp1
S'org.pippin.gimp.org.kernagic'
p2
(dp3
S'lstem'
p4
I0
sS'rstem'
p5
I0
ssS'com.typemytype.robofont.layerData'
p6
(dp7
sS'org.robofab.postScriptHintData'
p8
(dp9
s."
AnchorPoint: "top" 123 464 basechar 0
LayerCount: 2
Fore
SplineSet
74 464 m 257
 74 0 l 257
 168 0 l 257
 168 464 l 257
 74 464 l 257
EndSplineSet
EndChar

StartChar: uni0237
Encoding: 567 567 193
Width: 264
VWidth: 0
GlyphClass: 2
Flags: HW
PickledData: "(dp1
S'org.pippin.gimp.org.kernagic'
p2
(dp3
S'lstem'
p4
I0
sS'rstem'
p5
I0
ssS'com.typemytype.robofont.layerData'
p6
(dp7
sS'com.fontlab.hintData'
p8
(dp9
S'vhints'
p10
((dp11
S'position'
p12
I111
sS'width'
p13
I142
stp14
sS'hhints'
p15
((dp16
g12
I-479
sg13
I112
stp17
ssS'org.robofab.postScriptHintData'
p18
(dp19
s."
HStem: -206 48
VStem: 47 61
AnchorPoint: "top" 149 464 basechar 0
LayerCount: 2
Fore
SplineSet
99 464 m 257
 99 7 l 258
 99 -69 96 -87 30 -105 c 258
 0 -113 l 257
 20 -185 l 257
 49 -178 l 257
 148 -156 193 -124 193 -7 c 258
 193 464 l 257
 99 464 l 257
EndSplineSet
EndChar

StartChar: e
Encoding: 101 101 194
Width: 492
VWidth: 0
GlyphClass: 2
Flags: HW
PickledData: "(dp1
S'org.pippin.gimp.org.kernagic'
p2
(dp3
S'lstem'
p4
I0
sS'rstem'
p5
I747
ssS'com.typemytype.robofont.layerData'
p6
(dp7
sS'com.fontlab.hintData'
p8
(dp9
S'hhints'
p10
((dp11
S'position'
p12
I-19
sS'width'
p13
I94
s(dp14
g12
I982
sg13
I92
stp15
ssS'org.robofab.postScriptHintData'
p16
(dp17
s."
HStem: -8 40 421 40
AnchorPoint: "top" 266 464 basechar 0
AnchorPoint: "bot" 271 0 basechar 0
LayerCount: 2
Fore
SplineSet
142 269 m 257
 149 358 198 409 267 409 c 256
 336 409 368 360 369 269 c 257
 142 269 l 257
445 212 m 257
 445 212 449 242 449 260 c 256
 449 390 384 475 263 475 c 256
 141 475 46 384 46 231 c 256
 46 82 142 -9 273 -9 c 256
 342 -9 400 12 438 40 c 257
 417 96 l 257
 410 96 l 257
 372 74 337 57 285 57 c 256
 206 57 148 105 141 212 c 257
 445 212 l 257
EndSplineSet
EndChar

StartChar: eight
Encoding: 56 56 202
Width: 550
VWidth: 0
GlyphClass: 2
Flags: HW
PickledData: "(dp1
S'org.pippin.gimp.org.kernagic'
p2
(dp3
S'lstem'
p4
I0
sS'rstem'
p5
I0
ssS'com.typemytype.robofont.layerData'
p6
(dp7
sS'org.robofab.postScriptHintData'
p8
(dp9
s."
LayerCount: 2
Fore
SplineSet
276 353 m 257
 206 371 168 414 168 477 c 256
 168 534 211 568 276 568 c 256
 341 568 383 534 383 477 c 256
 383 415 347 371 276 353 c 257
276 59 m 256
 198 59 156 95 156 165 c 256
 156 237 207 281 276 298 c 257
 345 281 394 236 394 166 c 256
 394 93 357 59 276 59 c 256
276 -9 m 256
 397 -9 487 47 487 159 c 256
 487 242 440 305 366 330 c 257
 431 355 475 402 475 478 c 256
 475 579 391 634 276 634 c 256
 161 634 76 579 76 478 c 256
 76 401 124 352 188 330 c 257
 111 303 63 246 63 159 c 256
 63 47 156 -9 276 -9 c 256
EndSplineSet
EndChar

StartChar: emdash
Encoding: 8212 8212 205
Width: 922
VWidth: 0
GlyphClass: 2
Flags: HW
PickledData: "(dp1
S'org.robofab.postScriptHintData'
p2
(dp3
sS'com.typemytype.robofont.layerData'
p4
(dp5
s."
LayerCount: 2
Fore
SplineSet
25 215 m 257
 897 215 l 257
 897 283 l 257
 25 283 l 257
 25 215 l 257
EndSplineSet
EndChar

StartChar: endash
Encoding: 8211 8211 206
Width: 552
VWidth: 0
GlyphClass: 2
Flags: HW
PickledData: "(dp1
S'org.pippin.gimp.org.kernagic'
p2
(dp3
S'lstem'
p4
I0
sS'rstem'
p5
I0
ssS'com.typemytype.robofont.layerData'
p6
(dp7
sS'org.robofab.postScriptHintData'
p8
(dp9
s."
LayerCount: 2
Fore
SplineSet
37 217 m 257
 517 217 l 257
 517 281 l 257
 37 281 l 257
 37 217 l 257
EndSplineSet
EndChar

StartChar: eng
Encoding: 331 331 207
Width: 516
VWidth: 0
GlyphClass: 2
Flags: HW
PickledData: "(dp1
S'org.robofab.postScriptHintData'
p2
(dp3
sS'com.typemytype.robofont.layerData'
p4
(dp5
s."
LayerCount: 2
Fore
SplineSet
367 59 m 257
 367 -5 l 257
 367 -99 353 -125 206 -125 c 257
 209 -193 l 257
 401 -191 461 -149 461 -10 c 258
 461 59 l 257
 367 59 l 257
EndSplineSet
Refer: 275 110 N 1 0 0 1 0 0 2
EndChar

StartChar: equal
Encoding: 61 61 209
Width: 475
VWidth: 0
GlyphClass: 2
Flags: HW
PickledData: "(dp1
S'org.pippin.gimp.org.kernagic'
p2
(dp3
S'lstem'
p4
I0
sS'rstem'
p5
I0
ssS'com.typemytype.robofont.layerData'
p6
(dp7
S'b'
(dp8
S'name'
p9
S'equal'
p10
sS'lib'
p11
(dp12
sS'unicodes'
p13
(tsS'width'
p14
I1050
sS'contours'
p15
(tsS'components'
p16
(tsS'anchors'
p17
(tsssS'org.robofab.postScriptHintData'
p18
(dp19
s."
LayerCount: 2
Fore
SplineSet
52 257 m 257
 52 185 l 257
 424 185 l 257
 424 257 l 257
 52 257 l 257
52 426 m 257
 52 355 l 257
 424 355 l 257
 424 426 l 257
 52 426 l 257
EndSplineSet
EndChar

StartChar: estimated
Encoding: 8494 8494 210
Width: 517
VWidth: 0
GlyphClass: 2
Flags: HW
PickledData: "(dp1
S'org.robofab.postScriptHintData'
p2
(dp3
sS'com.typemytype.robofont.layerData'
p4
(dp5
S'b'
(dp6
S'name'
p7
S'estimated'
p8
sS'lib'
p9
(dp10
sS'unicodes'
p11
(tsS'width'
p12
I1223
sS'contours'
p13
(tsS'components'
p14
(tsS'anchors'
p15
(tsss."
LayerCount: 2
Fore
SplineSet
423 257 m 257
 140 257 l 257
 146 369 206 444 279 444 c 256
 369 444 423 357 423 257 c 257
40 230 m 256
 40 94 121 -9 284 -9 c 256
 373 -9 431 29 473 80 c 257
 451 102 l 257
 409 57 360 23 284 23 c 256
 186 23 139 104 139 222 c 257
 476 222 l 257
 476 371 412 469 276 469 c 256
 139 469 40 366 40 230 c 256
EndSplineSet
EndChar

StartChar: eth
Encoding: 240 240 211
Width: 516
VWidth: 0
GlyphClass: 2
Flags: HW
PickledData: "(dp1
S'org.pippin.gimp.org.kernagic'
p2
(dp3
S'lstem'
p4
I0
sS'rstem'
p5
I0
ssS'com.typemytype.robofont.layerData'
p6
(dp7
sS'org.robofab.postScriptHintData'
p8
(dp9
s."
LayerCount: 2
Fore
SplineSet
397 211 m 256
 397 119 350 57 259 57 c 256
 167 57 120 128 120 208 c 256
 120 292 170 354 257 354 c 256
 348 354 397 287 397 211 c 256
91 670 m 257
 181 582 l 257
 91 546 l 257
 114 490 l 257
 222 532 l 257
 282 473 326 418 347 381 c 257
 324 397 296 416 246 416 c 256
 124 416 40 333 40 208 c 256
 40 89 119 -9 257 -9 c 256
 398 -9 473 81 473 208 c 256
 473 268 457 327 434 371 c 256
 404 426 361 482 289 561 c 257
 391 600 l 257
 367 657 l 257
 247 609 l 257
 186 670 l 257
 91 670 l 257
EndSplineSet
EndChar

StartChar: exclam
Encoding: 33 33 212
Width: 311
VWidth: 0
GlyphClass: 2
Flags: HW
PickledData: "(dp1
S'org.pippin.gimp.org.kernagic'
p2
(dp3
S'lstem'
p4
I0
sS'rstem'
p5
I0
ssS'com.typemytype.robofont.layerData'
p6
(dp7
sS'org.robofab.postScriptHintData'
p8
(dp9
s."
LayerCount: 2
Fore
SplineSet
152 -5 m 256
 188 -5 207 23 207 52 c 256
 207 80 188 107 152 107 c 256
 116 107 97 80 97 52 c 256
 97 23 116 -5 152 -5 c 256
134 189 m 257
 171 189 l 257
 194 571 l 257
 194 638 l 257
 109 638 l 257
 109 571 l 257
 134 189 l 257
EndSplineSet
EndChar

StartChar: f
Encoding: 102 102 214
Width: 333
VWidth: 0
GlyphClass: 2
Flags: HW
PickledData: "(dp1
S'org.pippin.gimp.org.kernagic'
p2
(dp3
S'lstem'
p4
I182
sS'rstem'
p5
I417
ssS'com.typemytype.robofont.layerData'
p6
(dp7
sS'com.fontlab.hintData'
p8
(dp9
S'vhints'
p10
((dp11
S'position'
p12
I269
sS'width'
p13
I166
stp14
sS'hhints'
p15
((dp16
g12
I952
sg13
I89
s(dp17
g12
I1358
sg13
I122
stp18
ssS'org.robofab.postScriptHintData'
p19
(dp20
s."
HStem: 409 38 583 53
VStem: 115 71
AnchorPoint: "top" 174 625 basechar 0
LayerCount: 2
Fore
SplineSet
197 464 m 257
 197 498 l 258
 197 568 214 586 271 586 c 256
 286 586 311 584 319 583 c 257
 323 643 l 257
 319 644 290 651 248 651 c 258
 243 651 l 258
 157 651 104 625 104 498 c 258
 104 463 l 257
 28 456 l 257
 26 409 l 257
 104 409 l 257
 104 0 l 257
 197 0 l 257
 197 409 l 257
 314 409 l 257
 314 464 l 257
 197 464 l 257
EndSplineSet
EndChar

StartChar: five
Encoding: 53 53 215
Width: 550
VWidth: 0
GlyphClass: 2
Flags: HW
PickledData: "(dp1
S'org.pippin.gimp.org.kernagic'
p2
(dp3
S'lstem'
p4
I0
sS'rstem'
p5
I0
ssS'com.typemytype.robofont.layerData'
p6
(dp7
sS'org.robofab.postScriptHintData'
p8
(dp9
s."
LayerCount: 2
Fore
SplineSet
287 336 m 256
 360 336 399 272 399 204 c 256
 399 132 358 68 271 68 c 256
 212 68 167 90 134 137 c 257
 127 137 l 257
 76 86 l 257
 106 38 174 -9 274 -9 c 256
 421 -9 494 96 494 204 c 256
 494 303 430 403 302 403 c 256
 255 403 221 388 192 363 c 257
 211 556 l 261
 448 556 l 261
 458 626 l 261
 128 626 l 261
 107 294 l 257
 180 282 l 257
 203 317 241 336 287 336 c 256
EndSplineSet
EndChar

StartChar: florin
Encoding: 402 402 217
Width: 457
VWidth: 0
GlyphClass: 2
Flags: HW
PickledData: "(dp1
S'org.robofab.postScriptHintData'
p2
(dp3
s."
LayerCount: 2
Fore
SplineSet
228 536 m 258
 214 458 l 257
 137 458 l 257
 129 423 l 257
 208 423 l 257
 127 50 l 257
 110 -31 112 -83 41 -83 c 256
 29 -83 14 -81 -4 -77 c 257
 -13 -118 l 257
 7 -124 27 -128 45 -128 c 256
 124 -128 184 -68 209 52 c 257
 292 423 l 257
 396 423 l 257
 403 458 l 257
 299 458 l 257
 315 547 l 258
 325 597 340 634 383 634 c 256
 416 634 426 606 428 559 c 257
 488 559 l 257
 487 647 443 681 377 681 c 256
 290 681 244 623 228 536 c 258
EndSplineSet
EndChar

StartChar: foundryicon
Encoding: 65538 -1 218
Width: 577
VWidth: 0
GlyphClass: 2
Flags: HW
PickledData: "(dp1
S'org.robofab.postScriptHintData'
p2
(dp3
s."
LayerCount: 2
Fore
SplineSet
120 1 m 257
 287 120 l 257
 458 1 l 257
 396 198 l 257
 563 324 l 257
 355 324 l 257
 287 521 l 257
 222 324 l 257
 15 324 l 257
 182 198 l 257
 120 1 l 257
208 174 m 257
 208 288 l 257
 254 288 l 257
 327 224 l 257
 327 288 l 257
 372 288 l 257
 372 174 l 257
 327 174 l 257
 254 237 l 257
 254 174 l 257
 208 174 l 257
EndSplineSet
EndChar

StartChar: four
Encoding: 52 52 219
Width: 550
VWidth: 0
GlyphClass: 2
Flags: HW
PickledData: "(dp1
S'org.pippin.gimp.org.kernagic'
p2
(dp3
S'lstem'
p4
I0
sS'rstem'
p5
I0
ssS'com.typemytype.robofont.layerData'
p6
(dp7
sS'org.robofab.postScriptHintData'
p8
(dp9
s."
LayerCount: 2
Fore
SplineSet
141 225 m 257
 327 520 l 257
 327 225 l 257
 141 225 l 257
327 0 m 261
 422 0 l 261
 422 156 l 257
 495 156 l 257
 500 226 l 257
 422 226 l 257
 422 626 l 257
 316 626 l 257
 54 224 l 257
 72 156 l 257
 327 156 l 257
 327 0 l 261
EndSplineSet
EndChar

StartChar: fraction
Encoding: 8260 8260 220
Width: 458
VWidth: 0
GlyphClass: 2
Flags: HW
PickledData: "(dp1
S'org.robofab.postScriptHintData'
p2
(dp3
s."
LayerCount: 2
Fore
SplineSet
47 0 m 257
 118 0 l 257
 430 639 l 257
 360 639 l 257
 47 0 l 257
EndSplineSet
EndChar

StartChar: g
Encoding: 103 103 221
Width: 521
VWidth: 0
GlyphClass: 2
Flags: HW
PickledData: "(dp1
S'org.pippin.gimp.org.kernagic'
p2
(dp3
S'lstem'
p4
I0
sS'rstem'
p5
I0
ssS'com.typemytype.robofont.layerData'
p6
(dp7
sS'com.fontlab.hintData'
p8
(dp9
S'vhints'
p10
((dp11
S'position'
p12
I128
sS'width'
p13
I122
s(dp14
g12
I977
sg13
I125
s(dp15
g12
I977
sg13
I36
stp16
sS'hhints'
p17
((dp18
g12
I-426
sg13
I101
s(dp19
g12
I0
sg13
I93
s(dp20
g12
I982
sg13
I92
stp21
ssS'org.robofab.postScriptHintData'
p22
(dp23
s."
HStem: -183 43 0 40 421 40
VStem: 54 53 419 54 419 16
AnchorPoint: "top" 257 464 basechar 0
LayerCount: 2
Fore
SplineSet
258 57 m 256
 179 57 141 122 141 236 c 256
 141 349 184 408 258 408 c 256
 305 408 341 391 367 356 c 257
 367 103 l 257
 344 73 303 57 258 57 c 256
242 -211 m 256
 389 -211 457 -138 457 17 c 258
 457 464 l 257
 374 464 l 257
 371 419 l 257
 346 450 305 475 247 475 c 256
 130 475 46 387 46 236 c 256
 46 76 125 -6 244 -6 c 258
 245 -6 l 258
 292 -6 337 7 368 40 c 257
 370 6 l 257
 370 -2 l 258
 370 -109 320 -143 236 -143 c 256
 197 -143 150 -135 113 -120 c 257
 103 -120 l 257
 96 -188 l 257
 135 -201 188 -211 242 -211 c 256
EndSplineSet
EndChar

StartChar: germandbls
Encoding: 223 223 227
Width: 554
VWidth: 0
GlyphClass: 2
Flags: HW
PickledData: "(dp1
S'org.pippin.gimp.org.kernagic'
p2
(dp3
S'lstem'
p4
I0
sS'rstem'
p5
I0
ssS'com.typemytype.robofont.layerData'
p6
(dp7
S'b'
(dp8
S'name'
p9
S'germandbls'
p10
sS'lib'
p11
(dp12
sS'unicodes'
p13
(tsS'width'
p14
I1278
sS'contours'
p15
(tsS'components'
p16
(tsS'anchors'
p17
(tsssS'org.robofab.postScriptHintData'
p18
(dp19
s."
LayerCount: 2
Fore
SplineSet
371 -9 m 256
 465 -9 517 44 517 130 c 256
 517 260 351 303 351 346 c 256
 351 381 441 424 441 518 c 256
 441 606 371 659 269 659 c 256
 141 659 67 583 67 456 c 258
 67 0 l 257
 160 0 l 257
 160 453 l 258
 160 549 198 589 272 589 c 256
 325 589 353 562 353 518 c 256
 353 434 271 411 271 338 c 256
 271 254 422 219 422 130 c 256
 422 92 400 62 352 62 c 256
 310 62 265 78 244 89 c 257
 223 24 l 257
 262 6 320 -9 371 -9 c 256
EndSplineSet
EndChar

StartChar: grave
Encoding: 96 96 228
Width: 411
VWidth: 0
GlyphClass: 4
Flags: HW
PickledData: "(dp1
S'org.robofab.postScriptHintData'
p2
(dp3
sS'com.typemytype.robofont.layerData'
p4
(dp5
s."
AnchorPoint: "top" 211 459 mark 0
LayerCount: 2
Fore
SplineSet
175 519 m 257
 234 519 l 257
 151 683 l 257
 40 683 l 257
 175 519 l 257
EndSplineSet
EndChar

StartChar: greater
Encoding: 62 62 229
Width: 474
VWidth: 0
GlyphClass: 2
Flags: HW
PickledData: "(dp1
S'org.pippin.gimp.org.kernagic'
p2
(dp3
S'lstem'
p4
I0
sS'rstem'
p5
I0
ssS'com.typemytype.robofont.layerData'
p6
(dp7
S'b'
(dp8
S'name'
p9
S'greater'
p10
sS'lib'
p11
(dp12
sS'unicodes'
p13
(tsS'width'
p14
I1107
sS'contours'
p15
(tsS'components'
p16
(tsS'anchors'
p17
(tsssS'org.robofab.postScriptHintData'
p18
(dp19
s."
LayerCount: 2
Fore
SplineSet
40 445 m 257
 340 285 l 257
 39 142 l 257
 39 66 l 257
 440 260 l 257
 440 305 l 257
 40 518 l 257
 40 445 l 257
EndSplineSet
EndChar

StartChar: greaterequal
Encoding: 8805 8805 230
Width: 511
VWidth: 0
GlyphClass: 2
Flags: HW
PickledData: "(dp1
S'org.pippin.gimp.org.kernagic'
p2
(dp3
S'lstem'
p4
I0
sS'rstem'
p5
I0
ssS'com.typemytype.robofont.layerData'
p6
(dp7
S'b'
(dp8
S'name'
p9
S'greaterequal'
p10
sS'lib'
p11
(dp12
sS'unicodes'
p13
(tsS'width'
p14
I1192
sS'contours'
p15
(tsS'components'
p16
(tsS'anchors'
p17
(tsssS'org.robofab.postScriptHintData'
p18
(dp19
s."
LayerCount: 2
Fore
SplineSet
56 3 m 257
 457 3 l 257
 457 63 l 257
 56 62 l 257
 56 3 l 257
66 98 m 257
 450 305 l 257
 450 345 l 257
 68 562 l 257
 68 491 l 257
 368 325 l 257
 66 169 l 257
 66 98 l 257
EndSplineSet
EndChar

StartChar: guillemotleft
Encoding: 171 171 231
Width: 432
VWidth: 0
GlyphClass: 2
Flags: HW
PickledData: "(dp1
S'org.pippin.gimp.org.kernagic'
p2
(dp3
S'lstem'
p4
I0
sS'rstem'
p5
I0
ssS'com.typemytype.robofont.layerData'
p6
(dp7
S'b'
(dp8
S'name'
p9
S'guillemotleft'
p10
sS'lib'
p11
(dp12
sS'unicodes'
p13
(tsS'width'
p14
I994
sS'contours'
p15
(tsS'components'
p16
(tsS'anchors'
p17
(tsssS'org.robofab.postScriptHintData'
p18
(dp19
s."
LayerCount: 2
Fore
SplineSet
318 62 m 257
 389 62 l 257
 273 239 l 257
 391 417 l 257
 319 417 l 257
 193 238 l 257
 318 62 l 257
157 62 m 257
 229 62 l 257
 113 239 l 257
 231 417 l 257
 159 417 l 257
 32 238 l 257
 157 62 l 257
EndSplineSet
EndChar

StartChar: guillemotright
Encoding: 187 187 232
Width: 432
VWidth: 0
GlyphClass: 2
Flags: HW
PickledData: "(dp1
S'org.pippin.gimp.org.kernagic'
p2
(dp3
S'lstem'
p4
I0
sS'rstem'
p5
I0
ssS'com.typemytype.robofont.layerData'
p6
(dp7
sS'org.robofab.postScriptHintData'
p8
(dp9
s."
LayerCount: 2
Fore
SplineSet
265 62 m 257
 393 239 l 257
 265 417 l 257
 194 417 l 257
 311 239 l 257
 195 62 l 257
 265 62 l 257
107 62 m 257
 234 239 l 257
 107 417 l 257
 35 417 l 257
 152 239 l 257
 36 62 l 257
 107 62 l 257
EndSplineSet
EndChar

StartChar: guilsinglleft
Encoding: 8249 8249 233
Width: 294
VWidth: 0
GlyphClass: 2
Flags: HW
PickledData: "(dp1
S'org.robofab.postScriptHintData'
p2
(dp3
s."
LayerCount: 2
Fore
SplineSet
171 66 m 257
 244 66 l 257
 128 242 l 257
 248 419 l 257
 174 419 l 257
 52 241 l 257
 171 66 l 257
EndSplineSet
EndChar

StartChar: guilsinglright
Encoding: 8250 8250 234
Width: 328
VWidth: 0
GlyphClass: 2
Flags: HW
PickledData: "(dp1
S'org.pippin.gimp.org.kernagic'
p2
(dp3
S'lstem'
p4
I0
sS'rstem'
p5
I0
ssS'com.typemytype.robofont.layerData'
p6
(dp7
S'b'
(dp8
S'name'
p9
S'guilsinglright'
p10
sS'lib'
p11
(dp12
sS'unicodes'
p13
(tsS'width'
p14
I766
sS'contours'
p15
(tsS'components'
p16
(tsS'anchors'
p17
(tsssS'org.robofab.postScriptHintData'
p18
(dp19
s."
LayerCount: 2
Fore
SplineSet
64 66 m 257
 137 66 l 257
 262 246 l 257
 138 429 l 257
 64 429 l 257
 183 246 l 257
 64 66 l 257
EndSplineSet
EndChar

StartChar: h
Encoding: 104 104 235
Width: 523
VWidth: 0
GlyphClass: 2
Flags: HW
PickledData: "(dp1
S'org.pippin.gimp.org.kernagic'
p2
(dp3
S'lstem'
p4
I0
sS'rstem'
p5
I0
ssS'com.typemytype.robofont.layerData'
p6
(dp7
sS'com.fontlab.hintData'
p8
(dp9
S'vhints'
p10
((dp11
S'position'
p12
I193
sS'width'
p13
I122
s(dp14
g12
I910
sg13
I122
stp15
sS'hhints'
p16
((dp17
g12
I982
sg13
I92
stp18
ssS'org.robofab.postScriptHintData'
p19
(dp20
s."
HStem: 421 40
VStem: 83 53 390 53
AnchorPoint: "top" 274 610 basechar 0
LayerCount: 2
Fore
SplineSet
69 0 m 257
 163 0 l 257
 163 258 l 258
 163 338 193 408 284 408 c 256
 346 408 369 368 369 280 c 258
 369 0 l 257
 463 0 l 257
 463 288 l 258
 463 406 410 475 309 475 c 256
 240 475 189 445 160 376 c 257
 163 494 l 257
 163 670 l 257
 69 661 l 257
 69 0 l 257
EndSplineSet
EndChar

StartChar: hungarumlaut
Encoding: 733 733 238
Width: 363
VWidth: 0
GlyphClass: 4
Flags: HW
PickledData: "(dp1
S'org.robofab.postScriptHintData'
p2
(dp3
sS'com.typemytype.robofont.layerData'
p4
(dp5
s."
AnchorPoint: "top" 154 459 mark 0
LayerCount: 2
Fore
SplineSet
193 536 m 257
 243 536 l 257
 345 692 l 257
 256 692 l 257
 193 536 l 257
64 536 m 257
 117 536 l 257
 203 692 l 257
 123 692 l 257
 64 536 l 257
EndSplineSet
EndChar

StartChar: hyphen
Encoding: 45 45 239
Width: 377
VWidth: 0
GlyphClass: 4
Flags: HW
PickledData: "(dp1
S'org.pippin.gimp.org.kernagic'
p2
(dp3
S'lstem'
p4
I0
sS'rstem'
p5
I0
ssS'com.typemytype.robofont.layerData'
p6
(dp7
sS'org.robofab.postScriptHintData'
p8
(dp9
s."
LayerCount: 2
Fore
SplineSet
71 216 m 257
 305 216 l 257
 305 284 l 257
 71 284 l 257
 71 216 l 257
EndSplineSet
EndChar

StartChar: i
Encoding: 105 105 240
Width: 248
VWidth: 0
GlyphClass: 2
Flags: HW
PickledData: "(dp1
S'org.robofab.postScriptHintData'
p2
(dp3
sS'com.typemytype.robofont.layerData'
p4
(dp5
s."
LayerCount: 2
Fore
SplineSet
192 616 m 256
 192 652 168 675 128 675 c 256
 88 675 66 652 66 616 c 256
 66 579 88 556 128 556 c 256
 168 556 192 579 192 616 c 256
80 464 m 257
 80 0 l 257
 174 0 l 257
 174 464 l 257
 80 464 l 257
EndSplineSet
EndChar

StartChar: infinity
Encoding: 8734 8734 251
Width: 722
VWidth: 0
GlyphClass: 2
Flags: HW
PickledData: "(dp1
S'org.pippin.gimp.org.kernagic'
p2
(dp3
S'lstem'
p4
I0
sS'rstem'
p5
I0
ssS'com.typemytype.robofont.layerData'
p6
(dp7
S'b'
(dp8
S'name'
p9
S'infinity'
p10
sS'lib'
p11
(dp12
sS'unicodes'
p13
(tsS'width'
p14
I1647
sS'contours'
p15
(tsS'components'
p16
(tsS'anchors'
p17
(tsssS'org.robofab.postScriptHintData'
p18
(dp19
s."
LayerCount: 2
Fore
SplineSet
627 285 m 256
 627 221 598 171 537 171 c 256
 488 171 452 205 403 273 c 257
 440 327 481 374 535 374 c 256
 589 374 627 333 627 285 c 256
322 272 m 257
 284 217 237 171 186 171 c 256
 128 171 91 222 91 273 c 256
 91 327 126 374 184 374 c 256
 239 374 284 332 322 272 c 257
362 319 m 257
 310 390 256 438 184 438 c 256
 100 438 34 368 34 282 c 256
 34 188 89 107 185 107 c 256
 255 107 311 155 362 224 c 257
 420 145 472 107 536 107 c 256
 620 107 686 176 686 274 c 256
 686 368 633 438 537 438 c 256
 464 438 410 388 362 319 c 257
EndSplineSet
EndChar

StartChar: integral
Encoding: 8747 8747 252
Width: 396
VWidth: 0
GlyphClass: 2
Flags: HW
PickledData: "(dp1
S'org.pippin.gimp.org.kernagic'
p2
(dp3
S'lstem'
p4
I0
sS'rstem'
p5
I0
ssS'com.typemytype.robofont.layerData'
p6
(dp7
S'b'
(dp8
S'name'
p9
S'integral'
p10
sS'lib'
p11
(dp12
sS'unicodes'
p13
(tsS'width'
p14
I994
sS'contours'
p15
(tsS'components'
p16
(tsS'anchors'
p17
(tsssS'org.robofab.postScriptHintData'
p18
(dp19
s."
LayerCount: 2
Fore
SplineSet
193 499 m 258
 193 -18 l 258
 193 -91 177 -127 127 -127 c 256
 115 -127 101 -124 85 -120 c 257
 85 -180 l 257
 106 -184 126 -187 142 -187 c 256
 226 -187 264 -124 264 -14 c 258
 264 503 l 258
 264 572 275 610 324 610 c 256
 335 610 348 609 362 605 c 257
 362 657 l 257
 340 662 321 665 304 665 c 256
 225 665 193 607 193 499 c 258
EndSplineSet
EndChar

StartChar: j
Encoding: 106 106 255
Width: 260
VWidth: 0
GlyphClass: 2
Flags: HW
PickledData: "(dp1
S'org.robofab.postScriptHintData'
p2
(dp3
sS'com.typemytype.robofont.layerData'
p4
(dp5
s."
LayerCount: 2
Fore
SplineSet
205 616 m 256
 205 652 182 675 142 675 c 256
 102 675 79 652 79 616 c 256
 79 579 102 556 142 556 c 256
 182 556 205 579 205 616 c 256
98 464 m 257
 98 7 l 258
 98 -69 95 -87 29 -105 c 258
 -2 -113 l 257
 18 -185 l 257
 48 -178 l 257
 147 -156 192 -124 192 -7 c 258
 192 464 l 257
 98 464 l 257
EndSplineSet
EndChar

StartChar: k
Encoding: 107 107 257
Width: 480
VWidth: 0
GlyphClass: 2
Flags: HW
PickledData: "(dp1
S'org.pippin.gimp.org.kernagic'
p2
(dp3
S'lstem'
p4
I0
sS'rstem'
p5
I671
ssS'com.typemytype.robofont.layerData'
p6
(dp7
sS'org.robofab.postScriptHintData'
p8
(dp9
s."
AnchorPoint: "bot" 261 0 basechar 0
LayerCount: 2
Fore
SplineSet
69 0 m 257
 163 0 l 257
 163 173 l 257
 208 214 l 257
 374 0 l 257
 473 0 l 257
 473 11 l 257
 276 256 l 257
 461 455 l 257
 461 464 l 257
 358 464 l 257
 160 250 l 257
 163 335 l 257
 163 670 l 257
 69 661 l 257
 69 0 l 257
EndSplineSet
EndChar

StartChar: kgreenlandic
Encoding: 312 312 259
Width: 475
VWidth: 0
GlyphClass: 2
Flags: HW
PickledData: "(dp1
S'org.robofab.postScriptHintData'
p2
(dp3
s."
LayerCount: 2
Fore
SplineSet
62 0 m 257
 145 0 l 257
 145 165 l 257
 193 210 l 257
 363 0 l 257
 456 0 l 257
 456 8 l 257
 255 252 l 257
 442 455 l 257
 442 464 l 257
 346 464 l 257
 142 240 l 257
 145 335 l 257
 145 464 l 257
 62 464 l 257
 62 0 l 257
EndSplineSet
EndChar

StartChar: l
Encoding: 108 108 260
Width: 283
VWidth: 0
GlyphClass: 2
Flags: HW
PickledData: "(dp1
S'org.pippin.gimp.org.kernagic'
p2
(dp3
S'lstem'
p4
I0
sS'rstem'
p5
I238
ssS'com.typemytype.robofont.layerData'
p6
(dp7
sS'com.fontlab.hintData'
p8
(dp9
S'vhints'
p10
((dp11
S'position'
p12
I193
sS'width'
p13
I122
stp14
sS'hhints'
p15
((dp16
g12
I-11
sg13
I87
stp17
ssS'org.robofab.postScriptHintData'
p18
(dp19
s."
HStem: -4 37
VStem: 83 53
AnchorPoint: "bot" 187 1 basechar 0
AnchorPoint: "top" 145 650 basechar 0
LayerCount: 2
Fore
SplineSet
247 -4 m 257
 253 62 l 257
 220 63 l 258
 172 67 163 75 163 135 c 258
 163 670 l 257
 69 661 l 257
 69 137 l 258
 69 24 114 -4 208 -4 c 256
 247 -4 l 257
EndSplineSet
EndChar

StartChar: less
Encoding: 60 60 265
Width: 474
VWidth: 0
GlyphClass: 2
Flags: HW
PickledData: "(dp1
S'org.pippin.gimp.org.kernagic'
p2
(dp3
S'lstem'
p4
I0
sS'rstem'
p5
I0
ssS'com.typemytype.robofont.layerData'
p6
(dp7
S'b'
(dp8
S'name'
p9
S'less'
p10
sS'lib'
p11
(dp12
sS'unicodes'
p13
(tsS'width'
p14
I1107
sS'contours'
p15
(tsS'components'
p16
(tsS'anchors'
p17
(tsssS'org.robofab.postScriptHintData'
p18
(dp19
s."
LayerCount: 2
Fore
SplineSet
432 64 m 257
 432 139 l 257
 128 285 l 257
 432 442 l 257
 432 516 l 257
 32 305 l 257
 32 261 l 257
 432 64 l 257
EndSplineSet
EndChar

StartChar: lessequal
Encoding: 8804 8804 266
Width: 511
VWidth: 0
GlyphClass: 2
Flags: HW
PickledData: "(dp1
S'org.robofab.postScriptHintData'
p2
(dp3
sS'com.typemytype.robofont.layerData'
p4
(dp5
s."
LayerCount: 2
Fore
SplineSet
54 2 m 257
 455 2 l 257
 455 62 l 257
 54 62 l 257
 54 2 l 257
445 112 m 257
 445 181 l 257
 149 331 l 257
 444 491 l 257
 444 561 l 257
 62 352 l 257
 62 311 l 257
 445 112 l 257
EndSplineSet
EndChar

StartChar: logicalnot
Encoding: 172 172 267
Width: 529
VWidth: 0
GlyphClass: 2
Flags: HW
PickledData: "(dp1
S'org.pippin.gimp.org.kernagic'
p2
(dp3
S'lstem'
p4
I0
sS'rstem'
p5
I0
ssS'com.typemytype.robofont.layerData'
p6
(dp7
sS'org.robofab.postScriptHintData'
p8
(dp9
s."
LayerCount: 2
Fore
SplineSet
44 351 m 257
 44 286 l 257
 396 286 l 257
 396 108 l 257
 460 108 l 257
 460 351 l 257
 44 351 l 257
EndSplineSet
EndChar

StartChar: lozenge
Encoding: 9674 9674 268
Width: 505
VWidth: 0
GlyphClass: 2
Flags: HW
PickledData: "(dp1
S'org.pippin.gimp.org.kernagic'
p2
(dp3
S'lstem'
p4
I0
sS'rstem'
p5
I0
ssS'com.typemytype.robofont.layerData'
p6
(dp7
S'b'
(dp8
S'name'
p9
S'lozenge'
p10
sS'lib'
p11
(dp12
sS'unicodes'
p13
(tsS'width'
p14
I1164
sS'contours'
p15
(tsS'components'
p16
(tsS'anchors'
p17
(tsssS'org.robofab.postScriptHintData'
p18
(dp19
s."
LayerCount: 2
Fore
SplineSet
389 326 m 257
 365 281 277 106 252 60 c 257
 228 105 141 281 117 327 c 257
 141 372 231 546 256 591 c 257
 279 545 366 371 389 326 c 257
231 673 m 257
 49 326 l 257
 228 -20 l 257
 275 -20 l 257
 458 326 l 257
 279 673 l 257
 231 673 l 257
EndSplineSet
EndChar

StartChar: m
Encoding: 109 109 270
Width: 792
VWidth: 0
GlyphClass: 2
Flags: HW
PickledData: "(dp1
S'org.pippin.gimp.org.kernagic'
p2
(dp3
S'lstem'
p4
I0
sS'rstem'
p5
I0
ssS'com.typemytype.robofont.layerData'
p6
(dp7
sS'com.fontlab.hintData'
p8
(dp9
S'vhints'
p10
((dp11
S'position'
p12
I193
sS'width'
p13
I122
s(dp14
g12
I193
sg13
I98
s(dp15
g12
I845
sg13
I122
s(dp16
g12
I1483
sg13
I122
stp17
sS'hhints'
p18
((dp19
g12
I982
sg13
I92
stp20
ssS'org.robofab.postScriptHintData'
p21
(dp22
s."
HStem: 421 40
VStem: 83 53 83 42 363 53 636 53
AnchorPoint: "top" 421 464 basechar 0
LayerCount: 2
Fore
SplineSet
447 258 m 258
 447 351 505 408 559 408 c 256
 626 408 639 344 639 274 c 258
 639 0 l 257
 732 0 l 257
 732 297 l 258
 732 410 680 475 583 475 c 256
 514 475 461 439 432 370 c 257
 412 438 362 475 294 475 c 256
 231 475 181 441 154 377 c 257
 146 464 l 257
 68 464 l 257
 68 0 l 257
 161 0 l 257
 161 272 l 257
 169 353 209 408 272 408 c 256
 330 408 353 366 353 263 c 258
 353 0 l 257
 447 0 l 257
 447 258 l 258
EndSplineSet
EndChar

StartChar: macron
Encoding: 175 175 271
Width: 481
VWidth: 0
GlyphClass: 4
Flags: HW
PickledData: "(dp1
S'org.robofab.postScriptHintData'
p2
(dp3
sS'com.typemytype.robofont.layerData'
p4
(dp5
s."
AnchorPoint: "top" 241 459 mark 0
LayerCount: 2
Fore
SplineSet
105 564 m 257
 367 564 l 257
 367 612 l 257
 105 612 l 257
 105 564 l 257
EndSplineSet
EndChar

StartChar: minus
Encoding: 8722 8722 273
Width: 505
VWidth: 0
GlyphClass: 2
Flags: HW
PickledData: "(dp1
S'org.pippin.gimp.org.kernagic'
p2
(dp3
S'lstem'
p4
I0
sS'rstem'
p5
I0
ssS'com.typemytype.robofont.layerData'
p6
(dp7
sS'org.robofab.postScriptHintData'
p8
(dp9
s."
LayerCount: 2
Fore
SplineSet
44 286 m 257
 44 219 l 257
 465 219 l 257
 465 286 l 257
 44 286 l 257
EndSplineSet
EndChar

StartChar: multiply
Encoding: 215 215 274
Width: 426
VWidth: 0
GlyphClass: 2
Flags: HW
PickledData: "(dp1
S'org.pippin.gimp.org.kernagic'
p2
(dp3
S'lstem'
p4
I0
sS'rstem'
p5
I0
ssS'com.typemytype.robofont.layerData'
p6
(dp7
sS'org.robofab.postScriptHintData'
p8
(dp9
s."
LayerCount: 2
Fore
SplineSet
47 399 m 257
 166 269 l 257
 44 137 l 257
 89 90 l 257
 213 220 l 257
 335 90 l 257
 380 138 l 257
 380 138 274 253 258 269 c 257
 379 397 l 257
 332 445 l 257
 213 316 l 257
 91 447 l 257
 47 399 l 257
EndSplineSet
EndChar

StartChar: n
Encoding: 110 110 275
Width: 522
VWidth: 0
GlyphClass: 2
Flags: HW
PickledData: "(dp1
S'org.pippin.gimp.org.kernagic'
p2
(dp3
S'lstem'
p4
I0
sS'rstem'
p5
I0
ssS'com.typemytype.robofont.layerData'
p6
(dp7
sS'com.fontlab.hintData'
p8
(dp9
S'vhints'
p10
((dp11
S'position'
p12
I193
sS'width'
p13
I122
s(dp14
g12
I903
sg13
I122
stp15
sS'hhints'
p16
((dp17
g12
I0
sg13
I22
s(dp18
g12
I982
sg13
I92
s(dp19
g12
I1034
sg13
I21
stp20
ssS'org.robofab.postScriptHintData'
p21
(dp22
s."
HStem: 0 10 421 40 444 9
VStem: 83 53 388 53
AnchorPoint: "top" 300 464 basechar 0
AnchorPoint: "bot" 265 0 basechar 0
LayerCount: 2
Fore
SplineSet
68 0 m 257
 162 0 l 257
 162 264 l 258
 162 347 200 408 284 408 c 256
 347 408 367 361 367 282 c 258
 367 0 l 257
 461 0 l 257
 461 281 l 258
 461 404 413 475 308 475 c 256
 230 475 181 437 155 377 c 257
 147 464 l 257
 68 464 l 257
 68 0 l 257
EndSplineSet
EndChar

StartChar: nine
Encoding: 57 57 280
Width: 550
VWidth: 0
GlyphClass: 2
Flags: HW
PickledData: "(dp1
S'org.pippin.gimp.org.kernagic'
p2
(dp3
S'lstem'
p4
I0
sS'rstem'
p5
I0
ssS'com.typemytype.robofont.layerData'
p6
(dp7
sS'org.robofab.postScriptHintData'
p8
(dp9
s."
LayerCount: 2
Fore
SplineSet
409 435 m 256
 409 341 339 306 283 306 c 256
 207 306 165 362 165 435 c 256
 165 505 211 563 288 563 c 256
 365 563 409 505 409 435 c 256
149 0 m 257
 251 0 l 257
 410 209 l 258
 464 281 501 342 501 431 c 256
 501 541 423 634 288 634 c 256
 158 634 73 548 73 435 c 256
 73 315 159 242 257 242 c 256
 290 242 325 251 352 268 c 257
 285 181 217 97 149 11 c 257
 149 0 l 257
EndSplineSet
EndChar

StartChar: notequal
Encoding: 8800 8800 281
Width: 475
VWidth: 0
GlyphClass: 2
Flags: HW
PickledData: "(dp1
S'org.pippin.gimp.org.kernagic'
p2
(dp3
S'lstem'
p4
I0
sS'rstem'
p5
I0
ssS'com.typemytype.robofont.layerData'
p6
(dp7
S'b'
(dp8
S'name'
p9
S'notequal'
p10
sS'lib'
p11
(dp12
sS'unicodes'
p13
(tsS'width'
p14
I1079
sS'contours'
p15
(tsS'components'
p16
(tsS'anchors'
p17
(tsssS'org.robofab.postScriptHintData'
p18
(dp19
s."
LayerCount: 2
Fore
SplineSet
142 19 m 257
 201 147 l 257
 437 147 l 257
 433 207 l 257
 229 207 l 257
 291 330 l 257
 437 330 l 257
 432 391 l 257
 317 391 l 257
 367 506 l 257
 314 513 l 257
 256 391 l 257
 27 391 l 257
 32 330 l 257
 229 330 l 257
 168 207 l 257
 28 207 l 257
 32 147 l 257
 141 147 l 257
 91 29 l 257
 142 19 l 257
EndSplineSet
EndChar

StartChar: numbersign
Encoding: 35 35 283
Width: 493
VWidth: 0
GlyphClass: 2
Flags: HW
PickledData: "(dp1
S'org.pippin.gimp.org.kernagic'
p2
(dp3
S'lstem'
p4
I0
sS'rstem'
p5
I0
ssS'com.typemytype.robofont.layerData'
p6
(dp7
sS'org.robofab.postScriptHintData'
p8
(dp9
s."
LayerCount: 2
Fore
SplineSet
171 235 m 257
 207 420 l 257
 328 420 l 257
 291 235 l 257
 171 235 l 257
71 -6 m 257
 124 -6 l 257
 162 189 l 257
 282 189 l 257
 244 -6 l 257
 296 -6 l 257
 335 189 l 257
 425 189 l 257
 432 235 l 257
 344 235 l 257
 380 420 l 257
 465 420 l 257
 472 465 l 257
 389 465 l 257
 428 658 l 257
 376 658 l 257
 336 465 l 257
 216 465 l 257
 256 658 l 257
 202 658 l 257
 163 465 l 257
 76 465 l 257
 70 420 l 257
 154 420 l 257
 118 235 l 257
 34 235 l 257
 28 189 l 257
 109 189 l 257
 71 -6 l 257
EndSplineSet
EndChar

StartChar: o
Encoding: 111 111 284
Width: 521
VWidth: 0
GlyphClass: 2
Flags: HW
PickledData: "(dp1
S'org.pippin.gimp.org.kernagic'
p2
(dp3
S'lstem'
p4
I0
sS'rstem'
p5
I0
ssS'com.fontlab.hintData'
p6
(dp7
S'vhints'
p8
((dp9
S'position'
p10
I128
sS'width'
p11
I120
s(dp12
g10
I982
sg11
I120
stp13
sS'hhints'
p14
((dp15
g10
I-19
sg11
I92
s(dp16
g10
I982
sg11
I92
stp17
ssS'com.typemytype.robofont.guides'
p18
((dp19
S'y'
I1093
sS'x'
I582
sS'magnetic'
p20
I5
sS'angle'
p21
F90
sS'isGlobal'
p22
I00
stp23
sS'com.typemytype.robofont.layerData'
p24
(dp25
sS'org.robofab.postScriptHintData'
p26
(dp27
s."
HStem: -8 40 421 40
VStem: 54 52 421 52
AnchorPoint: "top" 261 464 basechar 0
LayerCount: 2
Fore
SplineSet
261 -9 m 256
 398 -9 476 89 476 233 c 256
 476 379 399 475 261 475 c 256
 123 475 46 379 46 233 c 256
 46 89 124 -9 261 -9 c 256
261 57 m 256
 177 57 141 128 141 233 c 256
 141 339 178 408 261 408 c 256
 344 408 381 339 381 233 c 256
 381 128 344 57 261 57 c 256
EndSplineSet
Substitution2: "Single Substitution lookup 4 subtable" ordmasculine
EndChar

StartChar: oe
Encoding: 339 339 289
Width: 813
VWidth: 0
GlyphClass: 2
Flags: HW
PickledData: "(dp1
S'org.pippin.gimp.org.kernagic'
p2
(dp3
S'lstem'
p4
I0
sS'rstem'
p5
I0
ssS'com.typemytype.robofont.layerData'
p6
(dp7
S'b'
(dp8
S'name'
p9
S'oe'
p10
sS'lib'
p11
(dp12
sS'unicodes'
p13
(tsS'width'
p14
F1915.3599999999999
sS'contours'
p15
(tsS'components'
p16
(tsS'anchors'
p17
(tsssS'org.robofab.postScriptHintData'
p18
(dp19
s."
LayerCount: 2
Fore
SplineSet
465 268 m 257
 472 359 525 410 593 410 c 256
 662 410 697 363 699 268 c 257
 465 268 l 257
253 56 m 256
 166 56 128 128 128 233 c 256
 128 339 166 409 253 409 c 256
 340 409 378 339 378 233 c 256
 378 128 340 56 253 56 c 256
772 260 m 258
 772 390 706 474 591 474 c 256
 523 474 453 432 423 370 c 257
 397 432 330 474 253 474 c 256
 119 474 42 380 42 233 c 256
 42 88 119 -8 253 -8 c 256
 329 -8 397 37 422 98 c 257
 452 36 528 -8 604 -8 c 256
 671 -8 727 14 761 39 c 257
 740 96 l 257
 734 96 l 257
 702 75 665 56 613 56 c 256
 538 56 467 97 463 212 c 257
 768 212 l 257
 768 212 772 237 772 255 c 258
 772 260 l 258
EndSplineSet
EndChar

StartChar: ogonek
Encoding: 731 731 290
Width: 328
VWidth: 0
GlyphClass: 4
Flags: HW
PickledData: "(dp1
S'org.pippin.gimp.org.kernagic'
p2
(dp3
S'lstem'
p4
I0
sS'rstem'
p5
I0
ssS'com.typemytype.robofont.layerData'
p6
(dp7
sS'org.robofab.postScriptHintData'
p8
(dp9
s."
LayerCount: 2
Fore
SplineSet
191 -184 m 256
 214 -184 240 -178 258 -170 c 257
 257 -119 l 257
 250 -123 226 -130 207 -130 c 256
 189 -130 173 -118 173 -96 c 256
 173 -64 204 -19 232 2 c 257
 193 2 l 257
 152 -16 107 -62 107 -114 c 256
 107 -158 139 -184 191 -184 c 256
EndSplineSet
EndChar

StartChar: one
Encoding: 49 49 294
Width: 550
VWidth: 0
GlyphClass: 2
Flags: HW
PickledData: "(dp1
S'org.pippin.gimp.org.kernagic'
p2
(dp3
S'lstem'
p4
I0
sS'rstem'
p5
I0
ssS'com.typemytype.robofont.layerData'
p6
(dp7
sS'org.robofab.postScriptHintData'
p8
(dp9
s."
LayerCount: 2
Fore
SplineSet
84 0 m 257
 494 0 l 257
 494 68 l 257
 347 68 l 257
 347 626 l 261
 260 626 l 261
 224 601 131 566 89 555 c 261
 89 485 l 261
 125 489 203 516 250 541 c 261
 250 68 l 257
 84 68 l 257
 84 0 l 257
EndSplineSet
EndChar

StartChar: onehalf
Encoding: 189 189 295
Width: 776
VWidth: 0
GlyphClass: 3
Flags: HW
PickledData: "(dp1
S'org.pippin.gimp.org.kernagic'
p2
(dp3
S'lstem'
p4
I0
sS'rstem'
p5
I0
ssS'com.typemytype.robofont.layerData'
p6
(dp7
sS'org.robofab.postScriptHintData'
p8
(dp9
s."
LayerCount: 2
Fore
SplineSet
163 0 m 257
 229 0 l 257
 628 637 l 257
 563 637 l 257
 163 0 l 257
61 256 m 257
 253 256 l 257
 253 308 l 257
 193 308 l 257
 193 637 l 257
 140 637 l 257
 123 623 72 599 56 592 c 257
 56 539 l 257
 65 543 110 560 126 570 c 257
 126 308 l 257
 61 308 l 257
 61 256 l 257
506 0 m 257
 730 0 l 257
 732 54 l 257
 581 54 l 257
 657 125 l 258
 711 175 736 209 736 263 c 256
 736 331 686 375 610 375 c 256
 556 375 508 348 484 308 c 257
 519 270 l 257
 544 303 575 318 609 318 c 256
 642 318 671 299 671 261 c 256
 671 233 657 207 615 164 c 257
 503 52 l 257
 506 0 l 257
EndSplineSet
Ligature2: "fracDiagonalFractionslookup11 subtable" one slash two
EndChar

StartChar: onequarter
Encoding: 188 188 296
Width: 733
VWidth: 0
GlyphClass: 3
Flags: HW
PickledData: "(dp1
S'org.pippin.gimp.org.kernagic'
p2
(dp3
S'lstem'
p4
I0
sS'rstem'
p5
I0
ssS'com.typemytype.robofont.layerData'
p6
(dp7
sS'org.robofab.postScriptHintData'
p8
(dp9
s."
LayerCount: 2
Fore
SplineSet
491 131 m 257
 594 291 l 257
 594 131 l 257
 491 131 l 257
155 0 m 257
 222 0 l 257
 622 637 l 257
 556 637 l 257
 155 0 l 257
595 0 m 257
 655 0 l 257
 655 80 l 257
 704 80 l 257
 703 131 l 257
 655 131 l 257
 655 370 l 257
 591 370 l 257
 425 127 l 257
 425 80 l 257
 595 80 l 257
 595 0 l 257
55 256 m 257
 244 256 l 257
 244 311 l 257
 185 311 l 257
 185 637 l 257
 133 637 l 257
 116 623 67 599 51 592 c 257
 51 535 l 257
 60 539 104 558 120 568 c 257
 120 311 l 257
 55 311 l 257
 55 256 l 257
EndSplineSet
Ligature2: "fracDiagonalFractionslookup11 subtable" one slash four
EndChar

StartChar: ordmasculine
Encoding: 186 186 298
Width: 414
VWidth: 0
GlyphClass: 2
Flags: HW
PickledData: "(dp1
S'org.pippin.gimp.org.kernagic'
p2
(dp3
S'lstem'
p4
I0
sS'rstem'
p5
I0
ssS'com.typemytype.robofont.layerData'
p6
(dp7
S'b'
(dp8
S'name'
p9
S'ordmasculine'
p10
sS'lib'
p11
(dp12
sS'unicodes'
p13
(tsS'width'
p14
I965
sS'contours'
p15
(tsS'components'
p16
(tsS'anchors'
p17
(tsssS'org.robofab.postScriptHintData'
p18
(dp19
s."
LayerCount: 2
Fore
SplineSet
290 473 m 256
 290 401 263 361 206 361 c 256
 152 361 126 401 126 474 c 256
 126 547 152 588 206 588 c 256
 260 588 290 546 290 473 c 256
57 474 m 256
 57 379 109 307 206 307 c 256
 297 307 355 380 355 474 c 256
 355 572 305 643 206 643 c 256
 109 643 57 571 57 474 c 256
EndSplineSet
EndChar

StartChar: oslash
Encoding: 248 248 299
Width: 521
VWidth: 0
GlyphClass: 2
Flags: HW
PickledData: "(dp1
S'org.pippin.gimp.org.kernagic'
p2
(dp3
S'lstem'
p4
I0
sS'rstem'
p5
I0
ssS'com.typemytype.robofont.layerData'
p6
(dp7
sS'org.robofab.postScriptHintData'
p8
(dp9
s."
LayerCount: 2
Fore
SplineSet
86 -54 m 257
 115 -71 l 257
 428 516 l 257
 396 534 l 257
 86 -54 l 257
EndSplineSet
Refer: 284 111 N 1 0 0 1 0 0 2
EndChar

StartChar: p
Encoding: 112 112 302
Width: 524
VWidth: 0
GlyphClass: 2
Flags: HW
PickledData: "(dp1
S'org.pippin.gimp.org.kernagic'
p2
(dp3
S'lstem'
p4
I0
sS'rstem'
p5
I0
ssS'com.typemytype.robofont.layerData'
p6
(dp7
sS'com.fontlab.hintData'
p8
(dp9
S'vhints'
p10
((dp11
S'position'
p12
I193
sS'width'
p13
I122
s(dp14
g12
I193
sg13
I97
s(dp15
g12
I1009
sg13
I122
stp16
sS'hhints'
p17
((dp18
g12
I-19
sg13
I92
s(dp19
g12
I982
sg13
I92
stp20
ssS'org.robofab.postScriptHintData'
p21
(dp22
s."
HStem: -8 40 421 40
VStem: 83 53 83 41 433 53
AnchorPoint: "top" 286 464 basechar 0
LayerCount: 2
Fore
SplineSet
271 57 m 256
 224 57 183 76 158 111 c 257
 158 262 l 257
 162 349 198 408 279 408 c 256
 356 408 385 341 385 233 c 256
 385 117 347 57 271 57 c 256
68 -199 m 257
 161 -199 l 257
 161 -28 l 257
 158 40 l 257
 185 11 228 -9 285 -9 c 256
 408 -9 479 91 479 233 c 256
 479 375 421 475 295 475 c 256
 224 475 176 435 154 371 c 257
 148 464 l 257
 68 464 l 257
 68 -199 l 257
EndSplineSet
EndChar

StartChar: paragraph
Encoding: 182 182 303
Width: 500
VWidth: 0
GlyphClass: 2
Flags: HW
PickledData: "(dp1
S'org.pippin.gimp.org.kernagic'
p2
(dp3
S'lstem'
p4
I0
sS'rstem'
p5
I0
ssS'com.typemytype.robofont.layerData'
p6
(dp7
sS'org.robofab.postScriptHintData'
p8
(dp9
s."
LayerCount: 2
Fore
SplineSet
281 569 m 257
 346 569 l 257
 346 -92 l 257
 406 -92 l 257
 406 625 l 257
 248 625 l 258
 99 625 54 554 54 472 c 256
 54 395 101 321 222 321 c 257
 222 -92 l 257
 281 -92 l 257
 281 569 l 257
EndSplineSet
EndChar

StartChar: parenright
Encoding: 41 41 305
Width: 341
VWidth: 0
GlyphClass: 2
Flags: HW
PickledData: "(dp1
S'org.pippin.gimp.org.kernagic'
p2
(dp3
S'lstem'
p4
I0
sS'rstem'
p5
I0
ssS'com.typemytype.robofont.layerData'
p6
(dp7
S'b'
(dp8
S'name'
p9
S'parenright'
p10
sS'lib'
p11
(dp12
sS'unicodes'
p13
(tsS'width'
p14
I766
sS'contours'
p15
(tsS'components'
p16
(tsS'anchors'
p17
(tsssS'org.robofab.postScriptHintData'
p18
(dp19
s."
LayerCount: 2
Fore
SplineSet
253 288 m 256
 253 431 210 576 140 683 c 257
 69 683 l 257
 69 668 l 257
 139 558 177 437 177 288 c 256
 177 139 139 18 69 -92 c 257
 69 -106 l 257
 140 -106 l 257
 210 1 253 145 253 288 c 256
EndSplineSet
EndChar

StartChar: partialdiff
Encoding: 8706 8706 306
Width: 524
VWidth: 0
GlyphClass: 2
Flags: HW
PickledData: "(dp1
S'org.robofab.postScriptHintData'
p2
(dp3
s."
LayerCount: 2
Fore
SplineSet
215 42 m 256
 183 42 168 73 168 114 c 256
 168 204 240 346 375 355 c 257
 366 232 319 42 215 42 c 256
209 -9 m 256
 360 -9 461 165 461 392 c 256
 461 565 361 670 236 670 c 256
 195 670 149 658 105 633 c 257
 124 586 l 257
 157 602 187 610 217 610 c 256
 308 610 379 537 379 416 c 256
 379 411 378 405 378 400 c 257
 182 397 73 245 73 127 c 256
 73 53 117 -9 209 -9 c 256
EndSplineSet
EndChar

StartChar: percent
Encoding: 37 37 307
Width: 748
VWidth: 0
GlyphClass: 2
Flags: HW
PickledData: "(dp1
S'org.pippin.gimp.org.kernagic'
p2
(dp3
S'lstem'
p4
I0
sS'rstem'
p5
I0
ssS'com.typemytype.robofont.layerData'
p6
(dp7
S'b'
(dp8
S'name'
p9
S'percent'
p10
sS'lib'
p11
(dp12
sS'unicodes'
p13
(tsS'width'
p14
I1563
sS'contours'
p15
(tsS'components'
p16
(tsS'anchors'
p17
(tsssS'org.robofab.postScriptHintData'
p18
(dp19
s."
LayerCount: 2
Fore
SplineSet
546 -4 m 256
 645 -4 689 68 689 163 c 256
 689 259 646 331 546 331 c 256
 448 331 403 257 403 163 c 256
 403 68 446 -4 546 -4 c 256
547 47 m 256
 485 47 467 97 467 164 c 256
 467 229 485 279 547 279 c 256
 609 279 627 232 627 164 c 256
 627 99 609 47 547 47 c 256
146 0 m 257
 216 0 l 257
 571 634 l 257
 505 634 l 257
 146 0 l 257
172 308 m 256
 271 308 316 382 316 476 c 256
 316 572 272 642 172 642 c 256
 74 642 33 571 33 476 c 256
 33 382 72 308 172 308 c 256
173 360 m 256
 111 360 92 409 92 476 c 256
 92 541 111 590 173 590 c 256
 235 590 253 543 253 476 c 256
 253 411 235 360 173 360 c 256
EndSplineSet
EndChar

StartChar: period
Encoding: 46 46 308
Width: 280
VWidth: 0
GlyphClass: 2
Flags: HW
PickledData: "(dp1
S'org.pippin.gimp.org.kernagic'
p2
(dp3
S'lstem'
p4
I0
sS'rstem'
p5
I0
ssS'com.typemytype.robofont.layerData'
p6
(dp7
S'b'
(dp8
S'name'
p9
S'period'
p10
sS'lib'
p11
(dp12
sS'unicodes'
p13
(tsS'width'
p14
I624
sS'contours'
p15
(tsS'components'
p16
(tsS'anchors'
p17
(tsssS'org.robofab.postScriptHintData'
p18
(dp19
s."
LayerCount: 2
Fore
SplineSet
141 -4 m 256
 174 -4 192 15 192 52 c 256
 192 88 174 107 141 107 c 256
 107 107 89 88 89 52 c 256
 89 15 107 -4 141 -4 c 256
EndSplineSet
EndChar

StartChar: periodcentered
Encoding: 183 183 309
Width: 273
VWidth: 0
GlyphClass: 2
Flags: HW
PickledData: "(dp1
S'org.pippin.gimp.org.kernagic'
p2
(dp3
S'lstem'
p4
I0
sS'rstem'
p5
I0
ssS'com.typemytype.robofont.layerData'
p6
(dp7
S'b'
(dp8
S'name'
p9
S'periodcentered'
p10
sS'lib'
p11
(dp12
sS'unicodes'
p13
(tsS'width'
p14
I653
sS'contours'
p15
(tsS'components'
p16
(tsS'anchors'
p17
(tsssS'org.robofab.postScriptHintData'
p18
(dp19
s."
LayerCount: 2
Fore
SplineSet
157 213 m 256
 189 213 212 235 212 268 c 256
 212 301 189 323 157 323 c 256
 124 323 102 301 102 268 c 256
 102 235 124 213 157 213 c 256
EndSplineSet
EndChar

StartChar: perthousand
Encoding: 8240 8240 310
Width: 1079
VWidth: 0
GlyphClass: 2
Flags: HW
PickledData: "(dp1
S'org.pippin.gimp.org.kernagic'
p2
(dp3
S'lstem'
p4
I0
sS'rstem'
p5
I0
ssS'com.typemytype.robofont.layerData'
p6
(dp7
S'b'
(dp8
S'name'
p9
S'perthousand'
p10
sS'lib'
p11
(dp12
sS'unicodes'
p13
(tsS'width'
p14
I2251
sS'contours'
p15
(tsS'components'
p16
(tsS'anchors'
p17
(tsssS'org.robofab.postScriptHintData'
p18
(dp19
s."
LayerCount: 2
Fore
SplineSet
877 -4 m 256
 976 -4 1021 68 1021 163 c 256
 1021 259 977 331 877 331 c 256
 779 331 735 257 735 163 c 256
 735 68 777 -4 877 -4 c 256
878 47 m 256
 816 47 797 97 797 164 c 256
 797 229 816 279 878 279 c 256
 940 279 957 232 957 164 c 256
 957 99 940 47 878 47 c 256
EndSplineSet
Refer: 307 37 N 1 0 0 1 9 0 2
EndChar

StartChar: pi
Encoding: 960 960 311
Width: 623
VWidth: 0
GlyphClass: 2
Flags: HW
PickledData: "(dp1
S'org.robofab.postScriptHintData'
p2
(dp3
sS'com.typemytype.robofont.layerData'
p4
(dp5
s."
LayerCount: 2
Fore
SplineSet
491 -5 m 256
 525 -5 553 4 568 19 c 257
 568 75 l 257
 556 71 535 62 517 62 c 256
 486 62 466 93 466 163 c 256
 466 211 469 300 479 383 c 257
 583 383 l 257
 583 464 l 257
 194 464 l 258
 90 464 59 420 59 326 c 257
 101 326 l 257
 106 359 123 383 158 383 c 258
 207 383 l 257
 178 170 l 258
 166 76 111 49 64 49 c 257
 64 2 l 257
 214 2 247 47 251 142 c 258
 261 383 l 257
 419 383 l 257
 404 288 388 178 388 112 c 256
 388 34 419 -5 491 -5 c 256
EndSplineSet
EndChar

StartChar: plus
Encoding: 43 43 312
Width: 493
VWidth: 0
GlyphClass: 2
Flags: HW
PickledData: "(dp1
S'org.pippin.gimp.org.kernagic'
p2
(dp3
S'lstem'
p4
I0
sS'rstem'
p5
I0
ssS'com.typemytype.robofont.layerData'
p6
(dp7
S'b'
(dp8
S'name'
p9
S'plus'
p10
sS'lib'
p11
(dp12
sS'unicodes'
p13
(tsS'width'
p14
I1136
sS'contours'
p15
(tsS'components'
p16
(tsS'anchors'
p17
(tsssS'org.robofab.postScriptHintData'
p18
(dp19
s."
LayerCount: 2
Fore
SplineSet
204 505 m 257
 204 344 l 257
 49 344 l 257
 49 263 l 257
 203 263 l 257
 203 98 l 257
 287 98 l 257
 287 263 l 257
 440 263 l 257
 440 344 l 257
 287 344 l 257
 287 505 l 257
 204 505 l 257
EndSplineSet
EndChar

StartChar: plusminus
Encoding: 177 177 313
Width: 486
VWidth: 0
GlyphClass: 2
Flags: HW
PickledData: "(dp1
S'org.pippin.gimp.org.kernagic'
p2
(dp3
S'lstem'
p4
I0
sS'rstem'
p5
I0
ssS'com.typemytype.robofont.layerData'
p6
(dp7
sS'org.robofab.postScriptHintData'
p8
(dp9
s."
LayerCount: 2
Fore
SplineSet
45 61 m 257
 45 0 l 257
 445 0 l 257
 445 61 l 257
 45 61 l 257
209 493 m 257
 209 331 l 257
 52 331 l 257
 52 267 l 257
 209 267 l 257
 209 105 l 257
 276 105 l 257
 276 267 l 257
 432 267 l 257
 432 331 l 257
 275 331 l 257
 275 493 l 257
 209 493 l 257
EndSplineSet
EndChar

StartChar: product
Encoding: 8719 8719 314
Width: 663
VWidth: 0
GlyphClass: 2
Flags: HW
PickledData: "(dp1
S'org.pippin.gimp.org.kernagic'
p2
(dp3
S'lstem'
p4
I0
sS'rstem'
p5
I0
ssS'com.typemytype.robofont.layerData'
p6
(dp7
S'b'
(dp8
S'name'
p9
S'product'
p10
sS'lib'
p11
(dp12
sS'unicodes'
p13
(tsS'width'
p14
I1533
sS'contours'
p15
(tsS'components'
p16
(tsS'anchors'
p17
(tsssS'org.robofab.postScriptHintData'
p18
(dp19
s."
LayerCount: 2
Fore
SplineSet
86 647 m 257
 86 0 l 257
 161 0 l 257
 161 581 l 257
 505 581 l 257
 505 0 l 257
 580 0 l 257
 580 647 l 257
 86 647 l 257
EndSplineSet
EndChar

StartChar: q
Encoding: 113 113 315
Width: 522
VWidth: 0
GlyphClass: 2
Flags: HW
PickledData: "(dp1
S'org.pippin.gimp.org.kernagic'
p2
(dp3
S'lstem'
p4
I0
sS'rstem'
p5
I0
ssS'com.typemytype.robofont.layerData'
p6
(dp7
sS'org.robofab.postScriptHintData'
p8
(dp9
s."
LayerCount: 2
Fore
SplineSet
257 57 m 256
 181 57 140 116 140 235 c 256
 140 348 179 408 255 408 c 256
 302 408 341 389 366 352 c 257
 366 105 l 257
 344 74 304 57 257 57 c 256
243 -9 m 256
 286 -9 332 6 365 40 c 257
 364 -12 l 257
 364 -199 l 257
 456 -199 l 257
 456 464 l 257
 376 464 l 257
 373 408 l 257
 348 445 305 475 243 475 c 256
 117 475 45 377 45 235 c 256
 45 91 113 -9 243 -9 c 256
EndSplineSet
EndChar

StartChar: question
Encoding: 63 63 316
Width: 408
VWidth: 0
GlyphClass: 2
Flags: HW
PickledData: "(dp1
S'org.pippin.gimp.org.kernagic'
p2
(dp3
S'lstem'
p4
I0
sS'rstem'
p5
I0
ssS'com.typemytype.robofont.layerData'
p6
(dp7
sS'org.robofab.postScriptHintData'
p8
(dp9
s."
LayerCount: 2
Fore
SplineSet
159 -6 m 256
 195 -6 213 18 213 48 c 256
 213 77 195 102 159 102 c 256
 122 102 104 77 104 48 c 256
 104 18 122 -6 159 -6 c 256
142 192 m 257
 177 188 l 257
 231 337 343 357 343 494 c 256
 343 597 269 643 187 643 c 256
 134 643 85 626 50 597 c 257
 70 529 l 257
 92 543 134 564 175 564 c 256
 228 564 255 534 255 480 c 256
 255 395 160 331 142 192 c 257
EndSplineSet
EndChar

StartChar: quotedbl
Encoding: 34 34 318
Width: 315
VWidth: 0
GlyphClass: 2
Flags: HW
PickledData: "(dp1
S'org.robofab.postScriptHintData'
p2
(dp3
sS'com.typemytype.robofont.layerData'
p4
(dp5
s."
LayerCount: 2
Fore
SplineSet
212 420 m 257
 256 420 l 257
 273 658 l 257
 182 658 l 257
 212 420 l 257
74 420 m 257
 119 420 l 257
 135 658 l 257
 44 658 l 257
 74 420 l 257
EndSplineSet
EndChar

StartChar: quotedblbase
Encoding: 8222 8222 319
Width: 344
VWidth: 0
GlyphClass: 2
Flags: HW
PickledData: "(dp1
S'org.robofab.postScriptHintData'
p2
(dp3
s."
LayerCount: 2
Fore
SplineSet
188 -141 m 257
 246 -141 l 257
 295 68 l 257
 208 68 l 257
 188 -141 l 257
47 -141 m 257
 105 -141 l 257
 152 68 l 257
 67 68 l 257
 47 -141 l 257
EndSplineSet
EndChar

StartChar: quotedblleft
Encoding: 8220 8220 320
Width: 394
VWidth: 0
GlyphClass: 2
Flags: HW
PickledData: "(dp1
S'org.robofab.postScriptHintData'
p2
(dp3
sS'com.typemytype.robofont.layerData'
p4
(dp5
s."
LayerCount: 2
Fore
SplineSet
222 439 m 257
 314 439 l 257
 333 650 l 257
 271 650 l 257
 222 439 l 257
64 439 m 257
 156 439 l 257
 175 650 l 257
 113 650 l 257
 64 439 l 257
EndSplineSet
EndChar

StartChar: quotedblright
Encoding: 8221 8221 321
Width: 394
VWidth: 0
GlyphClass: 2
Flags: HW
PickledData: "(dp1
S'org.robofab.postScriptHintData'
p2
(dp3
sS'com.typemytype.robofont.layerData'
p4
(dp5
s."
LayerCount: 2
Fore
SplineSet
64 439 m 257
 127 439 l 257
 175 650 l 257
 84 650 l 257
 64 439 l 257
222 439 m 257
 285 439 l 257
 333 650 l 257
 241 650 l 257
 222 439 l 257
EndSplineSet
EndChar

StartChar: quoteleft
Encoding: 8216 8216 322
Width: 225
VWidth: 0
GlyphClass: 2
Flags: HW
PickledData: "(dp1
S'org.robofab.postScriptHintData'
p2
(dp3
sS'com.typemytype.robofont.layerData'
p4
(dp5
s."
LayerCount: 2
Fore
SplineSet
175 650 m 257
 113 650 l 257
 64 439 l 257
 156 439 l 257
 175 650 l 257
EndSplineSet
EndChar

StartChar: quoteright
Encoding: 8217 8217 323
Width: 225
VWidth: 0
GlyphClass: 2
Flags: HW
PickledData: "(dp1
S'org.robofab.postScriptHintData'
p2
(dp3
sS'com.typemytype.robofont.layerData'
p4
(dp5
s."
LayerCount: 2
Fore
SplineSet
64 439 m 257
 127 439 l 257
 175 650 l 257
 84 650 l 257
 64 439 l 257
EndSplineSet
EndChar

StartChar: quotesinglbase
Encoding: 8218 8218 324
Width: 202
VWidth: 0
GlyphClass: 2
Flags: HW
PickledData: "(dp1
S'org.robofab.postScriptHintData'
p2
(dp3
s."
LayerCount: 2
Fore
SplineSet
43 -141 m 257
 103 -141 l 257
 152 68 l 257
 65 68 l 257
 43 -141 l 257
EndSplineSet
EndChar

StartChar: quotesingle
Encoding: 39 39 325
Width: 196
VWidth: 0
GlyphClass: 2
Flags: HW
PickledData: "(dp1
S'org.robofab.postScriptHintData'
p2
(dp3
s."
LayerCount: 2
Fore
SplineSet
73 406 m 257
 121 406 l 257
 135 650 l 257
 47 650 l 257
 73 406 l 257
EndSplineSet
EndChar

StartChar: r
Encoding: 114 114 326
Width: 341
VWidth: 0
GlyphClass: 2
Flags: HW
PickledData: "(dp1
S'org.pippin.gimp.org.kernagic'
p2
(dp3
S'lstem'
p4
I0
sS'rstem'
p5
I352
ssS'com.typemytype.robofont.layerData'
p6
(dp7
sS'com.fontlab.hintData'
p8
(dp9
S'vhints'
p10
((dp11
S'position'
p12
I193
sS'width'
p13
I122
s(dp14
g12
I193
sg13
I92
stp15
sS'hhints'
p16
((dp17
g12
I974
sg13
I94
stp18
ssS'org.robofab.postScriptHintData'
p19
(dp20
s."
HStem: 418 40
VStem: 83 53 83 40
AnchorPoint: "top" 194 464 basechar 0
AnchorPoint: "bot" 131 0 basechar 0
LayerCount: 2
Fore
SplineSet
68 0 m 257
 161 0 l 257
 161 263 l 258
 161 338 208 396 293 396 c 258
 296 396 l 257
 315 395 l 257
 322 467 l 257
 308 470 294 469 282 469 c 256
 232 469 184 445 153 373 c 257
 145 464 l 257
 68 464 l 257
 68 0 l 257
EndSplineSet
EndChar

StartChar: radical
Encoding: 8730 8730 328
Width: 515
VWidth: 0
GlyphClass: 2
Flags: HW
PickledData: "(dp1
S'org.pippin.gimp.org.kernagic'
p2
(dp3
S'lstem'
p4
I0
sS'rstem'
p5
I0
ssS'com.typemytype.robofont.layerData'
p6
(dp7
S'b'
(dp8
S'name'
p9
S'radical'
p10
sS'lib'
p11
(dp12
sS'unicodes'
p13
(tsS'width'
p14
I1136
sS'contours'
p15
(tsS'components'
p16
(tsS'anchors'
p17
(tsssS'org.robofab.postScriptHintData'
p18
(dp19
s."
LayerCount: 2
Fore
SplineSet
433 721 m 257
 390 541 302 216 260 36 c 257
 223 158 178 272 138 391 c 257
 18 361 l 257
 25 309 l 257
 89 323 l 257
 231 -70 l 257
 308 -70 l 257
 502 721 l 257
 433 721 l 257
EndSplineSet
EndChar

StartChar: registered
Encoding: 174 174 331
Width: 798
VWidth: 0
GlyphClass: 2
Flags: HW
PickledData: "(dp1
S'org.pippin.gimp.org.kernagic'
p2
(dp3
S'lstem'
p4
I0
sS'rstem'
p5
I0
ssS'com.typemytype.robofont.layerData'
p6
(dp7
sS'org.robofab.postScriptHintData'
p8
(dp9
s."
LayerCount: 2
Fore
SplineSet
393 -13 m 256
 559 -13 716 107 716 312 c 256
 716 517 559 638 393 638 c 256
 227 638 69 517 69 312 c 256
 69 107 227 -13 393 -13 c 256
393 33 m 256
 251 33 122 135 122 312 c 256
 122 488 251 592 393 592 c 256
 535 592 665 488 665 312 c 256
 665 135 535 33 393 33 c 256
323 352 m 257
 323 470 l 257
 389 470 l 258
 457 470 482 466 482 412 c 256
 482 367 461 352 401 352 c 258
 323 352 l 257
267 128 m 257
 322 128 l 257
 322 308 l 257
 397 308 l 257
 400 304 490 128 490 128 c 257
 551 128 l 257
 551 128 458 306 453 313 c 257
 511 323 535 358 535 414 c 256
 535 489 494 516 398 516 c 258
 267 516 l 257
 267 128 l 257
EndSplineSet
EndChar

StartChar: ring
Encoding: 730 730 332
Width: 313
VWidth: 0
GlyphClass: 4
Flags: HW
PickledData: "(dp1
S'org.robofab.postScriptHintData'
p2
(dp3
sS'com.typemytype.robofont.layerData'
p4
(dp5
s."
AnchorPoint: "top" 151 459 mark 0
LayerCount: 2
Fore
SplineSet
151 513 m 256
 202 513 238 551 238 597 c 256
 238 642 203 679 151 679 c 256
 100 679 66 643 66 597 c 256
 66 551 100 513 151 513 c 256
151 552 m 256
 126 552 111 572 111 596 c 256
 111 619 126 641 151 641 c 256
 176 641 193 619 193 596 c 256
 193 572 176 552 151 552 c 256
EndSplineSet
EndChar

StartChar: s
Encoding: 115 115 333
Width: 421
VWidth: 0
GlyphClass: 2
Flags: HW
PickledData: "(dp1
S'org.pippin.gimp.org.kernagic'
p2
(dp3
S'lstem'
p4
I168
sS'rstem'
p5
I620
ssS'com.fontlab.hintData'
p6
(dp7
S'vhints'
p8
((dp9
S'position'
p10
I142
sS'width'
p11
I107
s(dp12
g10
I738
sg11
I104
stp13
sS'hhints'
p14
((dp15
g10
I-19
sg11
I92
s(dp16
g10
I982
sg11
I92
stp17
ssS'com.typemytype.robofont.guides'
p18
((dp19
S'y'
I381
sS'x'
I77
sS'magnetic'
p20
I5
sS'angle'
p21
F90
sS'isGlobal'
p22
I00
stp23
sS'com.typemytype.robofont.layerData'
p24
(dp25
sS'org.robofab.postScriptHintData'
p26
(dp27
s."
HStem: -8 40 421 40
VStem: 61 46 316 45
AnchorPoint: "top" 215 465 basechar 0
AnchorPoint: "bot" 208 0 basechar 0
LayerCount: 2
Fore
SplineSet
302 131 m 256
 302 82 273 56 219 56 c 256
 178 56 126 69 88 113 c 257
 81 113 l 257
 34 69 l 257
 74 17 142 -9 220 -9 c 256
 312 -9 389 34 389 134 c 256
 389 187 374 230 265 267 c 258
 210 286 l 257
 152 305 142 321 142 348 c 256
 142 385 166 407 223 407 c 256
 269 407 306 389 328 363 c 257
 332 363 l 257
 380 403 l 257
 351 447 295 475 219 475 c 256
 114 475 48 426 48 346 c 256
 48 288 69 250 175 215 c 257
 226 199 l 258
 292 178 302 158 302 131 c 256
EndSplineSet
EndChar

StartChar: section
Encoding: 167 167 339
Width: 456
VWidth: 0
GlyphClass: 2
Flags: HW
PickledData: "(dp1
S'org.pippin.gimp.org.kernagic'
p2
(dp3
S'lstem'
p4
I0
sS'rstem'
p5
I0
ssS'com.typemytype.robofont.layerData'
p6
(dp7
S'b'
(dp8
S'name'
p9
S'section'
p10
sS'lib'
p11
(dp12
sS'unicodes'
p13
(tsS'width'
p14
I1079
sS'contours'
p15
(tsS'components'
p16
(tsS'anchors'
p17
(tsssS'org.robofab.postScriptHintData'
p18
(dp19
s."
LayerCount: 2
Fore
SplineSet
293 252 m 257
 283 256 267 264 220 278 c 257
 159 300 144 310 144 343 c 256
 144 366 153 382 171 392 c 257
 174 390 187 386 234 369 c 256
 293 349 310 328 310 299 c 256
 310 280 304 263 293 252 c 257
220 -9 m 256
 308 -9 380 30 380 131 c 256
 380 168 370 197 345 220 c 257
 366 242 381 271 381 311 c 256
 381 373 356 408 264 440 c 256
 162 475 151 485 151 518 c 256
 151 555 174 576 233 576 c 256
 277 576 319 561 345 548 c 257
 365 607 l 257
 325 629 276 642 225 642 c 256
 133 642 70 597 70 512 c 256
 70 475 82 447 114 422 c 257
 88 399 71 368 71 332 c 256
 71 277 97 243 180 214 c 256
 285 178 302 158 302 127 c 256
 302 80 272 57 220 57 c 256
 173 57 123 75 79 97 c 257
 79 25 l 257
 121 4 174 -9 220 -9 c 256
EndSplineSet
EndChar

StartChar: semicolon
Encoding: 59 59 340
Width: 311
VWidth: 0
GlyphClass: 2
Flags: HW
PickledData: "(dp1
S'org.pippin.gimp.org.kernagic'
p2
(dp3
S'lstem'
p4
I0
sS'rstem'
p5
I0
ssS'com.typemytype.robofont.layerData'
p6
(dp7
sS'org.robofab.postScriptHintData'
p8
(dp9
s."
LayerCount: 2
Fore
SplineSet
161 353 m 256
 198 353 218 378 218 410 c 256
 218 442 198 469 161 469 c 256
 124 469 103 442 103 410 c 256
 103 377 125 353 161 353 c 256
103 -134 m 257
 157 -134 l 257
 208 60 l 257
 208 106 l 257
 120 106 l 257
 120 98 103 -134 103 -134 c 257
EndSplineSet
EndChar

StartChar: seven
Encoding: 55 55 341
Width: 550
VWidth: 0
GlyphClass: 2
Flags: HW
PickledData: "(dp1
S'org.pippin.gimp.org.kernagic'
p2
(dp3
S'lstem'
p4
I0
sS'rstem'
p5
I0
ssS'com.typemytype.robofont.layerData'
p6
(dp7
sS'org.robofab.postScriptHintData'
p8
(dp9
s."
LayerCount: 2
Fore
SplineSet
146 0 m 257
 243 0 l 257
 473 557 l 261
 472 626 l 261
 74 626 l 261
 82 553 l 261
 373 553 l 261
 146 0 l 257
EndSplineSet
EndChar

StartChar: six
Encoding: 54 54 342
Width: 550
VWidth: 0
GlyphClass: 2
Flags: HW
PickledData: "(dp1
S'org.pippin.gimp.org.kernagic'
p2
(dp3
S'lstem'
p4
I0
sS'rstem'
p5
I0
ssS'com.typemytype.robofont.layerData'
p6
(dp7
sS'org.robofab.postScriptHintData'
p8
(dp9
s."
LayerCount: 2
Fore
SplineSet
281 62 m 256
 204 62 162 121 162 191 c 256
 162 284 229 319 283 319 c 256
 358 319 402 267 402 193 c 256
 402 123 358 62 281 62 c 256
282 -9 m 256
 412 -9 494 79 494 192 c 256
 494 312 412 383 315 383 c 256
 270 383 234 366 209 347 c 257
 275 436 341 525 407 615 c 261
 407 626 l 261
 306 626 l 261
 156 418 l 258
 102 343 69 283 69 194 c 256
 69 84 147 -9 282 -9 c 256
EndSplineSet
EndChar

StartChar: slash
Encoding: 47 47 343
Width: 420
VWidth: 0
GlyphClass: 2
Flags: HW
PickledData: "(dp1
S'org.pippin.gimp.org.kernagic'
p2
(dp3
S'lstem'
p4
I0
sS'rstem'
p5
I0
ssS'com.typemytype.robofont.layerData'
p6
(dp7
S'b'
(dp8
S'name'
p9
S'slash'
p10
sS'lib'
p11
(dp12
sS'unicodes'
p13
(tsS'width'
p14
I965
sS'contours'
p15
(tsS'components'
p16
(tsS'anchors'
p17
(tsssS'org.robofab.postScriptHintData'
p18
(dp19
s."
LayerCount: 2
Fore
SplineSet
49 -66 m 257
 120 -66 l 257
 387 670 l 257
 315 670 l 257
 49 -66 l 257
EndSplineSet
EndChar

StartChar: slashbar
Encoding: 65541 -1 344
Width: 319
VWidth: 0
GlyphClass: 4
Flags: HW
PickledData: "(dp1
S'org.pippin.gimp.org.kernagic'
p2
(dp3
S'lstem'
p4
I0
sS'rstem'
p5
I0
ssS'com.typemytype.robofont.layerData'
p6
(dp7
S'b'
(dp8
S'name'
p9
S'slashbar'
p10
sS'lib'
p11
(dp12
sS'unicodes'
p13
(tsS'width'
p14
I908
sS'contours'
p15
(tsS'components'
p16
(tsS'anchors'
p17
(tsssS'org.robofab.postScriptHintData'
p18
(dp19
s."
LayerCount: 2
Fore
SplineSet
75 205 m 257
 337 337 l 257
 337 403 l 257
 75 272 l 257
 75 205 l 257
EndSplineSet
EndChar

StartChar: sterling
Encoding: 163 163 346
Width: 496
VWidth: 0
GlyphClass: 2
Flags: HW
PickledData: "(dp1
S'org.pippin.gimp.org.kernagic'
p2
(dp3
S'lstem'
p4
I0
sS'rstem'
p5
I0
ssS'com.typemytype.robofont.layerData'
p6
(dp7
S'b'
(dp8
S'name'
p9
S'sterling'
p10
sS'lib'
p11
(dp12
sS'unicodes'
p13
(tsS'width'
p14
I1136
sS'contours'
p15
((dp16
S'points'
p17
((dp18
S'segmentType'
p19
S'line'
p20
sS'x'
I20
sS'smooth'
p21
I00
sS'y'
I0
s(dp22
g19
S'line'
p23
sS'x'
I8
sg21
I00
sS'y'
I115
s(dp24
g19
S'line'
p25
sS'x'
I180
sg21
I00
sS'y'
I132
s(dp26
g19
S'line'
p27
sS'x'
I180
sg21
I00
sS'y'
I683
s(dp28
g19
S'line'
p29
sS'x'
I8
sg21
I00
sS'y'
I683
s(dp30
g19
S'line'
p31
sS'x'
I8
sg21
I00
sS'y'
I806
s(dp32
g19
S'line'
p33
sS'x'
I180
sg21
I00
sS'y'
I806
s(dp34
g19
S'line'
p35
sS'x'
I180
sg21
I01
sS'y'
I920
s(dp36
S'y'
I1183
sS'x'
I180
sg21
I00
s(dp37
S'y'
I1476
sS'x'
I245
sg21
I00
s(dp38
g19
S'curve'
p39
sS'x'
I598
sg21
I01
sS'y'
I1476
s(dp40
S'y'
I1476
sS'x'
I742
sg21
I00
s(dp41
S'y'
I1421
sS'x'
I854
sg21
I00
s(dp42
g19
S'curve'
p43
sS'x'
I939
sg21
I00
sS'y'
I1347
s(dp44
g19
S'line'
p45
sS'x'
I871
sg21
I00
sS'y'
I1229
s(dp46
S'y'
I1297
sS'x'
I785
sg21
I00
s(dp47
S'y'
I1334
sS'x'
I700
sg21
I00
s(dp48
g19
S'curve'
p49
sS'x'
I598
sg21
I01
sS'y'
I1334
s(dp50
S'y'
I1334
sS'x'
I397
sg21
I00
s(dp51
S'y'
I1179
sS'x'
I356
sg21
I00
s(dp52
g19
S'curve'
p53
sS'x'
I356
sg21
I01
sS'y'
I949
s(dp54
g19
S'line'
p55
sS'x'
I356
sg21
I00
sS'y'
I806
s(dp56
g19
S'line'
p57
sS'x'
I739
sg21
I00
sS'y'
I806
s(dp58
g19
S'line'
p59
sS'x'
I739
sg21
I00
sS'y'
I683
s(dp60
g19
S'line'
p61
sS'x'
I356
sg21
I00
sS'y'
I683
s(dp62
g19
S'line'
p63
sS'x'
I356
sg21
I00
sS'y'
I134
s(dp64
g19
S'line'
p65
sS'x'
I953
sg21
I00
sS'y'
I134
s(dp66
g19
S'line'
p67
sS'x'
I940
sg21
I00
sS'y'
I0
stp68
stp69
sS'components'
p70
(tsS'anchors'
p71
(tsssS'org.robofab.postScriptHintData'
p72
(dp73
s."
LayerCount: 2
Fore
SplineSet
205 418 m 258
 205 517 241 565 309 565 c 256
 351 565 378 547 408 525 c 257
 416 525 l 257
 448 585 l 257
 423 609 374 643 293 643 c 256
 149 643 108 535 108 412 c 258
 108 353 l 257
 33 353 l 257
 33 291 l 257
 108 291 l 257
 108 70 l 257
 33 62 l 257
 38 0 l 257
 446 0 l 257
 450 71 l 257
 205 71 l 257
 205 291 l 257
 360 291 l 257
 360 353 l 257
 205 353 l 257
 205 418 l 258
EndSplineSet
EndChar

StartChar: t
Encoding: 116 116 348
Width: 350
VWidth: 0
GlyphClass: 2
Flags: HW
PickledData: "(dp1
S'org.pippin.gimp.org.kernagic'
p2
(dp3
S'lstem'
p4
I189
sS'rstem'
p5
I480
ssS'com.typemytype.robofont.layerData'
p6
(dp7
sS'com.fontlab.hintData'
p8
(dp9
S'vhints'
p10
((dp11
S'position'
p12
I244
sS'width'
p13
I122
s(dp14
g12
I286
sg13
I80
stp15
sS'hhints'
p16
((dp17
g12
I-11
sg13
I83
stp18
ssS'org.robofab.postScriptHintData'
p19
(dp20
s."
HStem: -4 36
VStem: 105 53 123 34
AnchorPoint: "top" 151 586 basechar 0
AnchorPoint: "bot" 207 0 basechar 0
LayerCount: 2
Fore
SplineSet
256 -4 m 257
 309 -3 l 257
 312 61 l 257
 261 63 l 257
 195 65 189 80 189 149 c 258
 189 409 l 257
 312 409 l 257
 312 464 l 257
 189 464 l 257
 189 598 l 257
 110 592 l 257
 98 464 l 257
 25 460 l 257
 24 409 l 257
 96 409 l 257
 96 150 l 258
 96 37 117 -4 256 -4 c 257
EndSplineSet
EndChar

StartChar: thorn
Encoding: 254 254 353
Width: 510
VWidth: 0
GlyphClass: 2
Flags: HW
PickledData: "(dp1
S'org.pippin.gimp.org.kernagic'
p2
(dp3
S'lstem'
p4
I0
sS'rstem'
p5
I0
ssS'com.typemytype.robofont.layerData'
p6
(dp7
S'b'
(dp8
S'name'
p9
S'thorn'
p10
sS'lib'
p11
(dp12
sS'unicodes'
p13
(tsS'width'
p14
I1221
sS'contours'
p15
(tsS'components'
p16
(tsS'anchors'
p17
(tsssS'org.robofab.postScriptHintData'
p18
(dp19
s."
LayerCount: 2
Fore
SplineSet
54 166 m 257
 54 -195 l 257
 145 -195 l 257
 145 166 l 257
 54 166 l 257
EndSplineSet
Refer: 153 98 N 1 0 0 1 -13 0 2
EndChar

StartChar: three
Encoding: 51 51 354
Width: 532
VWidth: 0
GlyphClass: 2
Flags: HW
PickledData: "(dp1
S'org.pippin.gimp.org.kernagic'
p2
(dp3
S'lstem'
p4
I0
sS'rstem'
p5
I0
ssS'com.typemytype.robofont.layerData'
p6
(dp7
sS'org.robofab.postScriptHintData'
p8
(dp9
s."
LayerCount: 2
Fore
SplineSet
260 -9 m 256
 387 -9 468 64 468 168 c 256
 468 248 424 316 330 330 c 257
 415 347 450 403 450 468 c 256
 451 573 379 634 261 634 c 256
 193 634 104 609 64 531 c 257
 114 486 l 257
 123 486 l 257
 157 538 203 557 256 557 c 258
 258 557 l 258
 325 557 358 522 358 464 c 258
 358 461 l 258
 358 372 280 360 207 360 c 258
 172 360 l 257
 183 290 l 257
 207 290 l 258
 313 290 372 264 372 171 c 256
 372 102 324 68 257 68 c 256
 210 68 154 85 121 134 c 257
 114 134 l 257
 65 89 l 257
 101 26 181 -9 260 -9 c 256
EndSplineSet
EndChar

StartChar: threequarters
Encoding: 190 190 355
Width: 748
VWidth: 0
GlyphClass: 3
Flags: HW
PickledData: "(dp1
S'org.pippin.gimp.org.kernagic'
p2
(dp3
S'lstem'
p4
I0
sS'rstem'
p5
I0
ssS'com.typemytype.robofont.layerData'
p6
(dp7
sS'org.robofab.postScriptHintData'
p8
(dp9
s."
LayerCount: 2
Fore
SplineSet
516 131 m 257
 620 291 l 257
 620 131 l 257
 516 131 l 257
182 0 m 257
 250 0 l 257
 650 637 l 257
 584 637 l 257
 182 0 l 257
620 0 m 257
 679 0 l 257
 679 80 l 257
 729 80 l 257
 729 131 l 257
 679 131 l 257
 679 370 l 257
 615 370 l 257
 450 127 l 257
 450 80 l 257
 620 80 l 257
 620 0 l 257
155 253 m 256
 222 253 282 290 282 367 c 256
 282 408 258 443 214 455 c 257
 259 466 274 507 274 539 c 256
 274 605 221 634 161 634 c 256
 122 634 81 622 50 599 c 257
 73 555 l 257
 102 573 132 581 156 581 c 256
 190 581 213 564 213 531 c 256
 213 498 192 478 147 478 c 258
 104 478 l 257
 104 425 l 257
 147 426 l 257
 198 426 221 406 221 366 c 256
 221 324 191 306 154 306 c 256
 127 306 96 315 71 331 c 257
 50 285 l 257
 81 264 118 253 155 253 c 256
EndSplineSet
Ligature2: "fracDiagonalFractionslookup11 subtable" three slash four
EndChar

StartChar: tilde
Encoding: 732 732 356
Width: 422
VWidth: 0
GlyphClass: 4
Flags: HW
PickledData: "(dp1
S'org.robofab.postScriptHintData'
p2
(dp3
sS'com.typemytype.robofont.layerData'
p4
(dp5
sS'com.fontlab.hintData'
p6
(dp7
S'vhints'
p8
((dp9
S'position'
p10
I169
sS'width'
p11
I63
s(dp12
g10
I657
sg11
I67
stp13
sS'hhints'
p14
((dp15
g10
I1301
sg11
I88
s(dp16
g10
I1400
sg11
I79
stp17
ss."
HStem: 558 38 601 34
VStem: 73 27 282 29
AnchorPoint: "top" 212 459 mark 0
LayerCount: 2
Fore
SplineSet
72 552 m 257
 116 552 l 257
 120 583 131 595 147 595 c 256
 178 595 225 552 272 552 c 256
 317 552 341 592 341 648 c 257
 296 648 l 257
 292 621 283 612 270 612 c 256
 244 612 201 649 147 649 c 256
 97 649 72 610 72 552 c 257
EndSplineSet
EndChar

StartChar: trademark
Encoding: 8482 8482 357
Width: 931
VWidth: 0
GlyphClass: 2
Flags: HW
PickledData: "(dp1
S'org.robofab.postScriptHintData'
p2
(dp3
sS'com.typemytype.robofont.layerData'
p4
(dp5
S'b'
(dp6
S'name'
p7
S'trademark'
p8
sS'lib'
p9
(dp10
sS'unicodes'
p11
(tsS'width'
p12
I2216
sS'contours'
p13
(tsS'components'
p14
(tsS'anchors'
p15
(tsss."
LayerCount: 2
Fore
SplineSet
163 224 m 257
 232 224 l 257
 232 570 l 257
 360 570 l 257
 360 625 l 257
 35 625 l 257
 35 570 l 257
 163 570 l 257
 163 224 l 257
412 224 m 257
 474 224 l 257
 477 528 l 257
 602 269 l 257
 646 269 l 257
 771 526 l 257
 775 224 l 257
 837 224 l 257
 829 625 l 257
 759 625 l 257
 625 348 l 257
 490 625 l 257
 420 625 l 257
 412 224 l 257
EndSplineSet
EndChar

StartChar: two
Encoding: 50 50 358
Width: 550
VWidth: 0
GlyphClass: 2
Flags: HW
PickledData: "(dp1
S'org.pippin.gimp.org.kernagic'
p2
(dp3
S'lstem'
p4
I0
sS'rstem'
p5
I0
ssS'com.typemytype.robofont.layerData'
p6
(dp7
sS'org.robofab.postScriptHintData'
p8
(dp9
s."
LayerCount: 2
Fore
SplineSet
119 496 m 257
 152 534 207 558 261 558 c 256
 323 558 379 523 379 449 c 256
 379 387 354 357 298 303 c 258
 66 76 l 257
 81 0 l 257
 458 0 l 257
 461 73 l 257
 175 73 l 257
 353 243 l 258
 438 324 469 370 469 451 c 256
 469 565 383 634 263 634 c 256
 183 634 108 599 64 548 c 257
 110 496 l 257
 119 496 l 257
EndSplineSet
EndChar

StartChar: u
Encoding: 117 117 359
Width: 522
VWidth: 0
GlyphClass: 2
Flags: HW
PickledData: "(dp1
S'org.pippin.gimp.org.kernagic'
p2
(dp3
S'lstem'
p4
I0
sS'rstem'
p5
I0
ssS'com.typemytype.robofont.layerData'
p6
(dp7
sS'com.fontlab.hintData'
p8
(dp9
S'vhints'
p10
((dp11
S'position'
p12
I162
sS'width'
p13
I166
s(dp14
g12
I862
sg13
I166
stp15
sS'hhints'
p16
((dp17
g12
I-21
sg13
I126
stp18
ssS'org.robofab.postScriptHintData'
p19
(dp20
s."
HStem: -9 54
VStem: 69 71 370 71
AnchorPoint: "top" 266 465 basechar 0
AnchorPoint: "bot" 249 0 basechar 0
LayerCount: 2
Fore
SplineSet
362 114 m 257
 344 92 312 56 246 56 c 256
 180 56 155 99 155 179 c 258
 155 464 l 257
 62 464 l 257
 62 174 l 258
 62 54 118 -9 227 -9 c 256
 296 -9 340 20 370 60 c 257
 374 0 l 257
 455 0 l 257
 455 464 l 257
 362 464 l 257
 362 114 l 257
EndSplineSet
EndChar

StartChar: underscore
Encoding: 95 95 367
Width: 396
VWidth: 0
GlyphClass: 2
Flags: HW
PickledData: "(dp1
S'org.pippin.gimp.org.kernagic'
p2
(dp3
S'lstem'
p4
I0
sS'rstem'
p5
I0
ssS'com.typemytype.robofont.layerData'
p6
(dp7
sS'org.robofab.postScriptHintData'
p8
(dp9
s."
LayerCount: 2
Fore
SplineSet
0 -115 m 257
 397 -115 l 257
 397 -54 l 257
 0 -54 l 257
 0 -115 l 257
EndSplineSet
EndChar

StartChar: uni00AD
Encoding: 173 173 369
Width: 392
VWidth: 0
GlyphClass: 2
Flags: HW
PickledData: "(dp1
S'org.robofab.postScriptHintData'
p2
(dp3
s."
LayerCount: 2
Fore
SplineSet
54 178 m 257
 338 178 l 257
 338 246 l 257
 54 246 l 257
 54 178 l 257
EndSplineSet
EndChar

StartChar: uni00B2
Encoding: 178 178 370
Width: 341
VWidth: 0
GlyphClass: 2
Flags: HW
PickledData: "(dp1
S'org.robofab.postScriptHintData'
p2
(dp3
sS'com.typemytype.robofont.layerData'
p4
(dp5
s."
LayerCount: 2
Fore
SplineSet
66 273 m 257
 290 273 l 257
 294 323 l 257
 154 323 l 257
 202 370 200 364 236 400 c 256
 273 438 295 478 295 527 c 256
 295 601 239 642 179 642 c 256
 124 642 81 623 53 585 c 257
 81 544 l 257
 103 572 135 588 175 588 c 256
 209 588 236 564 236 527 c 256
 236 504 214 471 190 442 c 257
 128 374 110 367 66 323 c 257
 66 273 l 257
EndSplineSet
EndChar

StartChar: uni00B3
Encoding: 179 179 371
Width: 376
VWidth: 0
GlyphClass: 2
Flags: HW
PickledData: "(dp1
S'org.robofab.postScriptHintData'
p2
(dp3
sS'com.typemytype.robofont.layerData'
p4
(dp5
s."
LayerCount: 2
Fore
SplineSet
186 265 m 256
 255 265 317 301 317 374 c 256
 317 420 289 454 249 463 c 257
 290 472 312 506 312 546 c 256
 312 615 259 641 197 641 c 256
 150 641 104 627 73 602 c 257
 95 563 l 257
 120 581 151 593 188 593 c 256
 227 593 257 578 257 541 c 256
 257 508 238 484 184 484 c 258
 134 484 l 257
 134 439 l 257
 184 440 l 257
 185 440 l 258
 236 440 262 412 262 375 c 256
 262 334 227 313 185 313 c 256
 146 313 114 326 93 345 c 257
 70 301 l 257
 100 277 143 265 186 265 c 256
EndSplineSet
EndChar

StartChar: uni00B9
Encoding: 185 185 373
Width: 376
VWidth: 0
GlyphClass: 2
Flags: HW
PickledData: "(dp1
S'org.robofab.postScriptHintData'
p2
(dp3
sS'com.typemytype.robofont.layerData'
p4
(dp5
s."
LayerCount: 2
Fore
SplineSet
110 264 m 257
 316 264 l 257
 316 317 l 257
 247 317 l 257
 247 636 l 257
 195 636 l 257
 180 625 129 598 106 589 c 257
 106 535 l 257
 117 537 164 559 180 568 c 257
 180 317 l 257
 110 317 l 257
 110 264 l 257
EndSplineSet
EndChar

StartChar: uni02C9
Encoding: 713 713 442
Width: 256
VWidth: 0
GlyphClass: 4
Flags: HW
PickledData: "(dp1
S'org.robofab.postScriptHintData'
p2
(dp3
s."
AnchorPoint: "top" 130 459 mark 0
LayerCount: 2
Fore
SplineSet
-9 568 m 257
 263 568 l 257
 263 628 l 257
 -9 628 l 257
 -9 568 l 257
EndSplineSet
EndChar

StartChar: uni0307
Encoding: 775 775 443
Width: 203
VWidth: 0
GlyphClass: 4
Flags: HW
PickledData: "(dp1
S'org.robofab.postScriptHintData'
p2
(dp3
sS'com.typemytype.robofont.layerData'
p4
(dp5
s."
LayerCount: 2
Fore
SplineSet
164 623 m 256
 164 658 143 679 105 679 c 256
 67 679 44 658 44 623 c 256
 44 587 67 566 105 566 c 256
 143 566 164 587 164 623 c 256
EndSplineSet
EndChar

StartChar: uni2074
Encoding: 8308 8308 462
Width: 299
VWidth: 0
GlyphClass: 2
Flags: HW
PickledData: "(dp1
S'org.robofab.postScriptHintData'
p2
(dp3
sS'com.typemytype.robofont.layerData'
p4
(dp5
s."
LayerCount: 2
Fore
SplineSet
76 396 m 257
 171 561 l 257
 171 396 l 257
 76 396 l 257
170 264 m 257
 228 264 l 257
 228 350 l 257
 275 350 l 257
 279 396 l 257
 229 396 l 257
 229 636 l 257
 166 636 l 257
 15 400 l 257
 15 350 l 257
 170 350 l 257
 170 264 l 257
EndSplineSet
EndChar

StartChar: uni2113
Encoding: 8467 8467 463
Width: 534
VWidth: 0
GlyphClass: 2
Flags: HW
PickledData: "(dp1
S'org.robofab.postScriptHintData'
p2
(dp3
s."
LayerCount: 2
Fore
SplineSet
129 117 m 256
 129 29 175 -9 244 -9 c 256
 346 -9 413 42 413 42 c 257
 403 102 l 257
 360 80 321 66 287 66 c 256
 250 66 232 83 232 122 c 256
 232 138 235 157 240 179 c 258
 263 272 l 257
 400 381 l 258
 488 450 531 536 531 605 c 256
 531 674 487 726 400 726 c 256
 338 726 275 696 249 599 c 258
 162 277 l 257
 33 181 l 257
 54 143 l 257
 142 207 l 257
 133 172 129 142 129 117 c 256
283 355 m 257
 333 563 l 257
 347 623 370 650 410 650 c 256
 447 650 466 627 466 592 c 256
 466 547 435 482 367 426 c 257
 283 355 l 257
EndSplineSet
EndChar

StartChar: Delta
Encoding: 8710 8710 465
Width: 554
VWidth: 0
GlyphClass: 2
Flags: HW
PickledData: "(dp1
S'org.pippin.gimp.org.kernagic'
p2
(dp3
S'lstem'
p4
I0
sS'rstem'
p5
I0
ssS'com.typemytype.robofont.layerData'
p6
(dp7
S'b'
(dp8
S'name'
p9
S'uni2206'
p10
sS'lib'
p11
(dp12
sS'unicodes'
p13
(tsS'width'
p14
I1278
sS'contours'
p15
(tsS'components'
p16
(tsS'anchors'
p17
(tsssS'org.robofab.postScriptHintData'
p18
(dp19
s."
LayerCount: 2
Fore
SplineSet
291 516 m 257
 442 75 l 257
 113 75 l 257
 262 516 l 257
 276 568 l 257
 291 516 l 257
238 665 m 257
 29 37 l 257
 29 0 l 257
 527 0 l 257
 527 37 l 257
 318 665 l 257
 238 665 l 257
EndSplineSet
EndChar

StartChar: v
Encoding: 118 118 476
Width: 464
VWidth: 0
GlyphClass: 2
Flags: HW
PickledData: "(dp1
S'org.pippin.gimp.org.kernagic'
p2
(dp3
S'lstem'
p4
I0
sS'rstem'
p5
I0
ssS'com.typemytype.robofont.guides'
p6
((dp7
S'y'
I552
sS'x'
I438
sS'magnetic'
p8
I5
sS'angle'
p9
I0
sS'isGlobal'
p10
I00
stp11
sS'com.typemytype.robofont.layerData'
p12
(dp13
sS'org.robofab.postScriptHintData'
p14
(dp15
s."
LayerCount: 2
Fore
SplineSet
188 0 m 257
 282 0 l 257
 446 464 l 257
 352 464 l 257
 314 344 275 225 237 105 c 257
 197 225 157 344 117 464 c 257
 21 464 l 257
 188 0 l 257
EndSplineSet
EndChar

StartChar: w
Encoding: 119 119 477
Width: 648
VWidth: 0
GlyphClass: 2
Flags: HW
PickledData: "(dp1
S'org.pippin.gimp.org.kernagic'
p2
(dp3
S'lstem'
p4
I0
sS'rstem'
p5
I0
ssS'com.typemytype.robofont.layerData'
p6
(dp7
sS'org.robofab.postScriptHintData'
p8
(dp9
s."
AnchorPoint: "top" 328 464 basechar 0
LayerCount: 2
Fore
SplineSet
329 375 m 257
 437 -1 l 257
 521 -1 l 257
 641 464 l 257
 557 464 l 257
 477 109 l 257
 374 464 l 257
 280 464 l 257
 179 109 l 257
 96 464 l 257
 9 464 l 257
 132 -1 l 257
 215 -1 l 257
 329 375 l 257
EndSplineSet
EndChar

StartChar: x
Encoding: 120 120 482
Width: 457
VWidth: 0
GlyphClass: 2
Flags: HW
PickledData: "(dp1
S'org.pippin.gimp.org.kernagic'
p2
(dp3
S'lstem'
p4
I0
sS'rstem'
p5
I0
ssS'com.typemytype.robofont.layerData'
p6
(dp7
sS'com.fontlab.hintData'
p8
(dp9
S'hhints'
p10
((dp11
S'position'
p12
I0
sS'width'
p13
I22
s(dp14
g12
I1034
sg13
I21
stp15
ssS'org.robofab.postScriptHintData'
p16
(dp17
s."
HStem: 0 10 444 9
LayerCount: 2
Fore
SplineSet
281 236 m 257
 436 464 l 257
 345 464 l 257
 236 302 l 257
 128 464 l 257
 26 464 l 257
 180 235 l 257
 18 -1 l 257
 110 -1 l 257
 224 168 l 257
 337 -1 l 257
 440 -1 l 257
 281 236 l 257
EndSplineSet
EndChar

StartChar: y
Encoding: 121 121 483
Width: 485
VWidth: 0
GlyphClass: 2
Flags: HW
PickledData: "(dp1
S'org.pippin.gimp.org.kernagic'
p2
(dp3
S'lstem'
p4
I0
sS'rstem'
p5
I0
ssS'com.typemytype.robofont.layerData'
p6
(dp7
sS'org.robofab.postScriptHintData'
p8
(dp9
s."
AnchorPoint: "top" 247 464 basechar 0
LayerCount: 2
Fore
SplineSet
471 464 m 257
 382 464 l 257
 249 125 l 257
 106 464 l 257
 11 464 l 257
 202 28 l 257
 128 -157 l 257
 207 -181 l 257
 471 464 l 257
EndSplineSet
EndChar

StartChar: yen
Encoding: 165 165 487
Width: 583
VWidth: 0
GlyphClass: 2
Flags: HW
PickledData: "(dp1
S'org.pippin.gimp.org.kernagic'
p2
(dp3
S'lstem'
p4
I0
sS'rstem'
p5
I0
ssS'com.typemytype.robofont.layerData'
p6
(dp7
S'b'
(dp8
S'name'
p9
S'yen'
p10
sS'lib'
p11
(dp12
sS'unicodes'
p13
(tsS'width'
p14
I1366
sS'contours'
p15
(tsS'components'
p16
(tsS'anchors'
p17
(tsssS'org.robofab.postScriptHintData'
p18
(dp19
s."
LayerCount: 2
Fore
SplineSet
105 221 m 257
 469 221 l 257
 469 271 l 257
 105 271 l 257
 105 221 l 257
105 109 m 257
 469 109 l 257
 469 158 l 257
 105 158 l 257
 105 109 l 257
EndSplineSet
Refer: 122 89 N 1 0 0 1 0 0 2
EndChar

StartChar: z
Encoding: 122 122 489
Width: 428
VWidth: 0
GlyphClass: 2
Flags: HW
PickledData: "(dp1
S'org.pippin.gimp.org.kernagic'
p2
(dp3
S'lstem'
p4
I0
sS'rstem'
p5
I0
ssS'com.typemytype.robofont.layerData'
p6
(dp7
sS'org.robofab.postScriptHintData'
p8
(dp9
s."
AnchorPoint: "top" 216 464 basechar 0
AnchorPoint: "bot" 209 0 basechar 0
LayerCount: 2
Fore
SplineSet
47 464 m 257
 49 402 l 257
 284 402 l 257
 40 54 l 257
 40 0 l 257
 388 0 l 257
 386 66 l 257
 145 66 l 257
 382 405 l 257
 382 464 l 257
 47 464 l 257
EndSplineSet
EndChar

StartChar: zero
Encoding: 48 48 493
Width: 550
VWidth: 0
GlyphClass: 2
Flags: HW
PickledData: "(dp1
S'org.pippin.gimp.org.kernagic'
p2
(dp3
S'lstem'
p4
I0
sS'rstem'
p5
I0
ssS'com.typemytype.robofont.layerData'
p6
(dp7
S'b'
(dp8
S'name'
p9
S'zero'
p10
sS'lib'
p11
(dp12
sS'unicodes'
p13
(tsS'width'
p14
I1248
sS'contours'
p15
(tsS'components'
p16
(tsS'anchors'
p17
(tsssS'org.robofab.postScriptHintData'
p18
(dp19
s."
LayerCount: 2
Fore
SplineSet
277 -9 m 256
 428 -9 499 112 499 305 c 256
 499 505 423 634 277 634 c 256
 130 634 52 505 52 305 c 256
 52 112 126 -9 277 -9 c 256
277 68 m 256
 199 68 150 139 150 307 c 256
 150 468 199 557 277 557 c 256
 355 557 401 477 401 307 c 256
 401 139 355 68 277 68 c 256
EndSplineSet
EndChar

StartChar: Sigma
Encoding: 931 931 495
Width: 467
VWidth: 0
GlyphClass: 2
Flags: HW
LayerCount: 2
Fore
SplineSet
36 625 m 257
 36 569 l 257
 244 263 l 257
 28 -38 l 257
 28 -91 l 257
 454 -91 l 257
 454 -13 l 257
 143 -13 l 257
 348 263 l 257
 156 549 l 257
 435 549 l 257
 435 625 l 257
 36 625 l 257
EndSplineSet
EndChar

StartChar: uni03BC
Encoding: 956 956 496
Width: 516
VWidth: 0
GlyphClass: 2
Flags: HW
LayerCount: 2
Fore
SplineSet
362 114 m 257
 344 92 312 56 246 56 c 256
 180 56 155 99 155 179 c 258
 155 464 l 257
 62 464 l 257
 62 -127 l 257
 155 -127 l 257
 155 4 l 257
 176 -4 200 -9 227 -9 c 256
 296 -9 340 20 370 60 c 257
 374 0 l 257
 455 0 l 257
 455 464 l 257
 362 464 l 257
 362 114 l 257
EndSplineSet
EndChar

StartChar: emptyset
Encoding: 8709 8709 497
Width: 719
VWidth: 0
GlyphClass: 2
Flags: HW
LayerCount: 2
Fore
SplineSet
40 315 m 256
 40 499 192 641 357 641 c 256
 431 641 503 612 559 564 c 257
 635 649 l 257
 664 626 l 257
 585 539 l 257
 639 481 675 403 675 315 c 256
 675 131 522 -11 357 -11 c 256
 285 -11 214 16 159 62 c 257
 76 -31 l 257
 50 -7 l 257
 133 86 l 257
 76 145 40 225 40 315 c 256
183 89 m 257
 233 49 294 25 357 25 c 256
 503 25 639 152 639 315 c 256
 639 392 609 461 562 512 c 257
 183 89 l 257
156 113 m 257
 535 537 l 257
 485 579 422 605 357 605 c 256
 211 605 75 478 75 315 c 256
 75 236 107 165 156 113 c 257
EndSplineSet
EndChar

StartChar: uni03A9
Encoding: 937 937 498
Width: 687
VWidth: 0
GlyphClass: 2
Flags: HW
LayerCount: 2
Fore
SplineSet
53 0 m 257
 47 50 l 257
 201 50 l 257
 115 110 53 207 53 331 c 256
 53 507 179 621 350 621 c 256
 527 621 638 496 638 331 c 256
 638 204 563 108 487 50 c 257
 640 50 l 257
 635 0 l 257
 418 0 l 257
 417 47 l 257
 506 106 570 203 570 323 c 256
 570 454 496 566 348 566 c 256
 214 566 120 469 120 324 c 256
 120 205 181 106 272 47 c 257
 272 0 l 257
 53 0 l 257
EndSplineSet
EndChar

StartChar: uni0358
Encoding: 856 856 499
Width: 203
VWidth: 0
GlyphClass: 4
Flags: HW
LayerCount: 2
Fore
SplineSet
164 623 m 256
 164 658 143 679 105 679 c 256
 67 679 44 658 44 623 c 256
 44 587 67 566 105 566 c 256
 143 566 164 587 164 623 c 256
EndSplineSet
EndChar

StartChar: uni0259
Encoding: 601 601 500
Width: 492
VWidth: 0
GlyphClass: 2
Flags: HW
PickledData: "(dp1
S'com.fontlab.hintData'
p2
(dp3
S'hhints'
p4
((dp5
S'position'
p6
I1010
sS'width'
p7
I94
s(dp8
g6
I11
sg7
I92
stp9
ss."
HStem: 433 40 4 40
LayerCount: 2
Fore
SplineSet
360 197 m 257
 353 108 305 57 236 57 c 256
 167 57 134 106 133 197 c 257
 360 197 l 257
57 254 m 257
 57 254 54 223 54 205 c 256
 54 75 118 -9 239 -9 c 256
 361 -9 457 82 457 235 c 256
 457 384 360 475 229 475 c 256
 160 475 103 454 65 426 c 257
 86 369 l 257
 91 369 l 257
 129 391 165 408 217 408 c 256
 296 408 355 361 362 254 c 257
 57 254 l 257
EndSplineSet
EndChar
